<svg xmlns="http://www.w3.org/2000/svg" viewBox="0 0 512 512"><g fill="#00c895"><path d="M140.6,282.6s40.3-38.2,56,0c24.6,60.3-.5,194.4,60.4,193.9,50.4-.5,30.2-147.3,100.2-201.7C406.9,236.2,462,229,462,229s-74.4-8.7-131.1,41.5c-51,45.2-56.1,168.6-74.4,168.1-35.3-1.2-1.2-190.3-73.4-180.4-21.5,2.6-42.5,24.4-42.5,24.4Z"/><path d="M444.6,247.3s10.2-5.5,15.7-10.1,3.4-6.8,11.9-7.3c18.5-1.2,39.8,16.2,39.8,16.2s-31.6-6.3-43-5.1c-15.4,1.7-24.4,6.3-24.4,6.3ZM147.1,204.8s13.7-64.5-12.1-67.4c-33.3-3.6-34,44.9-29.7,66.4a75.8,75.8,0,0,0,10.1,25.4s-21.5-70,14.3-70c26.8-.3,17.4,45.6,17.4,45.6Z"/><path d="M211.1,195.4c0-1.5-.3-3.2-.3-4.6-2.6-26.1-19.3-45.2-37.9-43.2-9.2.9-17.1,7-22.4,17.1s-6.8,21-5.6,33.1c2.7,24.9,17.9,43.5,35.5,43.5h2.4c23-2.2,23.2-18.6,23.2-28.3,0-6.3.2-10.4,2.9-12.5l2.4-2-.2-3.1Zm-9.7,2.6c-7,2.7-2.2,10.2-2.6,17.2s-2.7,18.8-15.3,19.1-25.8-19.8-26.8-42.8c-1.2-27.5,16.5-31.6,16.5-31.6s8.9-3.2,15.7,1.4c9.4,6.3,15.2,35,15.2,35s-.5.8-2.7,1.7ZM143,238.6c-3.4-11.1-14.5-19.1-27.8-19.1-15.9,0-28.7,11.6-28.7,26.1a51.1,51.1,0,0,0,.4,5.3v-.5c2,11.9,10.7,22.3,10.7,22.3A45.7,45.7,0,0,1,99,241.3c2.7-6.3,9.9-11.1,14.8-13.6,1.9,5.1,11.8,28.3,26.3,21.8,4.3-2.2,4.8-6.5,2.9-10.9Zm-9.2,4.4c-7,2.4-15.5-11.6-17.6-15.5,4.3,0,11.1,1,15.4,4.6S136.5,242,133.8,243ZM110.4,142.5C105.1,133.1,99,123.9,93,115,66.4,77,32.6,49.8,0,36.7l.2-1.2C40.1,42,85.3,73.2,118.8,121c2.7,3.9,5.3,7.7,7.8,11.8a45.1,45.1,0,0,0-7.5,2.2A20.1,20.1,0,0,0,110.4,142.5Z"/></g></svg>