<svg xmlns="http://www.w3.org/2000/svg" viewBox="0 0 512 368"><g fill="var(--main, #000)"><path d="M27,316.9c-4.8-1.1-10.7-1.2-13-6.3a36.2,36.2,0,0,1-1-15,44.8,44.8,0,0,0-3.8-17,39.5,39.5,0,0,1-5.9-16.5,1.1,1.1,0,0,0-.6-1,1,1,0,0,0-1.1.4c-3.8,5.2,0,11.5,2.4,16.6H4A45.5,45.5,0,0,1,8.1,299a24.7,24.7,0,0,0,3,16.2,18.4,18.4,0,0,0,15.5,5.5,2.1,2.1,0,0,0,1.6-1.7,2.1,2.1,0,0,0-1.2-2.1Z"/><path d="M287.3,195.3a969.6,969.6,0,0,1-119,38.2l-59.8,16.7c-10,2.8-19.9,5.5-29.9,8.1l-9.7,2.6-1.6-2.4a32.1,32.1,0,0,1-2.4-4.5,34.1,34.1,0,0,1-3.4-9.4c-.2-1.3-2-.9-2,.3h0a32.5,32.5,0,0,0,1.8,10.7,23.9,23.9,0,0,0,3.5,6.5c-4.4,1.4-8.8,2.9-13,4.6a45.8,45.8,0,0,0-22.3,16.2A29.8,29.8,0,0,0,27,310.1a.8.8,0,0,0,1.5-.5,31.8,31.8,0,0,1,5.6-25.3,29.2,29.2,0,0,1,3.7-4.1c-.6,3.7-2.3,7.4-3.2,11h0a28.2,28.2,0,0,0-1,7c-.1,2.8.5,5.5.5,8.2h0a.7.7,0,0,0,.6.7.9.9,0,0,0,.7-.6,59.8,59.8,0,0,1,2-8.1,76.6,76.6,0,0,1,2.3-8.2,33.2,33.2,0,0,0,2.2-13.3,62.3,62.3,0,0,1,11.8-6c8.6-3.5,17.6-6,26.4-9s19.4-6.1,29.3-8.8c19.3-5.3,38.9-9.8,58.3-14.7s38.5-10.2,57.7-15.9c21.7-6.5,43.2-13.6,64.3-21.9,3.4-1.4,1-6.7-2.4-5.3Z"/><path d="M371.2,115.8a138.1,138.1,0,0,1-70.7,20.5,218.9,218.9,0,0,0-35.1-3.7,52.6,52.6,0,0,0-39.2,24.6c-1.7,2.9-3.2,6-4.8,9.1-12.6,8.5-23.5,19.6-36.7,27.3h.1a99.5,99.5,0,0,1-20.8,8.7c-7.5,2.3-15.2,4.4-22.8,6s-15.6,2.1-23.4,3h0a83.1,83.1,0,0,0-22,5.8q-10.6,4.7-20.7,10.2L53.2,239c-7.9,4.3-15.8,8.9-23.8,13.1h0a27.4,27.4,0,0,1-12.5,3,40.9,40.9,0,0,0-12,2.1.7.7,0,0,0-.3.8.8.8,0,0,0,.7.5,44.6,44.6,0,0,1,12.1.3,26.5,26.5,0,0,0,10.5-1.5A95.5,95.5,0,0,0,38,252.2l11.1-5.8c14.4-7.6,28.8-15.3,43.6-22h0a91.9,91.9,0,0,1,21.7-7.1c8.1-1.5,16.3-1.9,24.3-3.7s15.2-3.7,22.8-5.8h0a126.8,126.8,0,0,0,21.4-7.6A133.3,133.3,0,0,0,204.4,186c6-4.6,12.2-9,18-13.9h0a5.3,5.3,0,0,0,1.3,4.8h.7c1.3-.8,1.3-2.5,1.7-3.9s1-3.7,1.7-5.4a57.9,57.9,0,0,1,3.4-7.1,51.3,51.3,0,0,1,6.9-8.5,48.9,48.9,0,0,1,26.7-13.3,78.2,78.2,0,0,1,24.1,2,22.6,22.6,0,0,1,2.5,3.8,53.6,53.6,0,0,1,2.8,5.3,119,119,0,0,1,4.7,11.1c2.9,8.2,5.9,16.3,9.1,24.3h0a1,1,0,0,0,1.1.5,1.1,1.1,0,0,0,.7-1.1,284.6,284.6,0,0,0-7.5-28.5,70.3,70.3,0,0,0-5.4-12.6l-1-1.9,4,.2a112.7,112.7,0,0,0,35-5.9,187.3,187.3,0,0,0,37.6-17.1c1.7-1,.5-3.9-1.3-2.9Z"/><path d="M42.4,306.5a7.1,7.1,0,0,1-6.6,1.8,2.2,2.2,0,0,0-1.9.9,2,2,0,0,0-.2,2c1.4,3-1.5,4.7-3.8,6.1s.1,1.9,1,1.6c2.5-.8,4.8-.7,6.4-3.2a5.3,5.3,0,0,0,.9-3.5,7,7,0,0,0,6.7-4.4,1.6,1.6,0,0,0-.7-1.8,1.4,1.4,0,0,0-1.8.5Z"/><path d="M442.2,91.5a110.4,110.4,0,0,1-15,8.4,50.3,50.3,0,0,1-18.1,1.4,53.7,53.7,0,0,0-17,1.6,31.8,31.8,0,0,0-7.7,3.6l-3.3,2.1c-1.3,1-2.4,2.2-3.7,3.1s0,2,1,1.6c2.5-1.3,5.5-2.2,8.1-3.3h0a67.4,67.4,0,0,1,8.6-3,49.5,49.5,0,0,1,6.6-.8c11.1,2.3,23.6,5.2,27.1,17.1a.8.8,0,0,0,1,.7.8.8,0,0,0,.7-.9,20.8,20.8,0,0,0-11-16.5l-1.1-.6a50.5,50.5,0,0,0,25.8-11.2c1.7-1.4-.1-4.4-2-3.3Z"/><path d="M451.6,124.3a46,46,0,0,0-17.5,6.6,22.7,22.7,0,0,0-6.4,7.4c-.5-3.3-1.2-6.5-1.9-9.8h0a1,1,0,0,0-1.1-.8,1.1,1.1,0,0,0-.8,1.1,128.1,128.1,0,0,1,.3,19.6c-.1,6-.6,12.1-1.2,18.1-1.2,12.5-2.9,24.9-4.3,37.3a161.1,161.1,0,0,0-1.5,18.4c0,6.2.4,12.4-.1,18.6-.9,12.4-2.8,24.8-4.2,37.3-.9,7-1.9,14-2.5,21.1h0a11.8,11.8,0,0,0,1.3,7.8,5.7,5.7,0,0,0,6.2,2.6,1.9,1.9,0,0,0-.1-3.7c-3-.4-3-3.9-2.7-6.2s.7-6.1,1.1-9.1l2.1-17.9c1.3-11.7,3.3-23.4,3.7-35.2.3-5.7-.3-11.5-.1-17.3s1-11.6,1.7-17.3c1.5-11.7,3-23.3,4.1-34.9h0a169.7,169.7,0,0,0,.9-20.2v-1.2a26.7,26.7,0,0,1,9.1-12.4,78.2,78.2,0,0,1,14.5-7.9,1.1,1.1,0,0,0-.6-2Z"/><path d="M439.4,129.8l-.4.5a23.3,23.3,0,0,1-3.5,2.7v6.7c-.2,6.1-.7,12.1-1.3,18.1-1.2,12.5-2.8,24.9-4.2,37.4a159.4,159.4,0,0,0-1.6,18.3c0,6.2.5,12.4,0,18.6-1,12.5-2.8,24.9-4.3,37.3-.8,7-1.9,14.1-2.5,21.1h0a11.7,11.7,0,0,0,1.4,7.8c1.4,2.1,7.1,1.6,9.6.9s-1.3-1.7-3.5-2-3-3.9-2.8-6.2.8-6,1.1-9.1l2.1-17.8c1.4-11.7,3.3-23.5,3.8-35.2.2-5.8-.3-11.5-.1-17.3a170.7,170.7,0,0,1,1.7-17.4c1.4-11.6,2.9-23.3,4.1-34.9a193.5,193.5,0,0,0,.5-29.5Z"/><path d="M406,319.5a14.7,14.7,0,0,1-1.8-7.1c-.2-2.8-.6-5.5-1-8.3-.8-5.8-1.6-11.5-2.2-17.3a260.5,260.5,0,0,1-1.4-35.3c.5-23.4,2.4-46.6,2.2-69.9-.1-13.1-1.4-26-2.6-39-.1-.9-1.7-.9-1.6,0v9.2h0a56.8,56.8,0,0,1-7.8-3.9,38.7,38.7,0,0,1-8.3-6.3,44.5,44.5,0,0,1-10.8-17.1,1,1,0,0,0-1.9.6,37.4,37.4,0,0,0,9.9,19.2,41.9,41.9,0,0,0,8.8,6.9,36.9,36.9,0,0,0,10.1,3.6c0,8-.1,16-.2,23.9v7.4a48.5,48.5,0,0,1-11.1-4.4,18.5,18.5,0,0,1-9-9.3c-.3-.8-1.7-.4-1.5.5h0a27.2,27.2,0,0,0,2,6.3h-8.9a90.9,90.9,0,0,0-5.9-24.7c-1.5-3.8-3.2-7.6-5-11.4l-2.8-5.4c-1-2-1.6-4.2-2.7-6.3h0a1.1,1.1,0,0,0-1-.6.8.8,0,0,0-.7.8,20.7,20.7,0,0,0,2.9,11.4,96.5,96.5,0,0,1,4.6,11.6,147.6,147.6,0,0,1,5.7,24.7l-3.6.3c-6.9.7-13.8,1.5-20.7,2.7s-13.6,2.6-20.4,4.4c-3.1.8-6.1,2-9.3,3s-6.7,2-9.9,3.2h0a.6.6,0,1,0,.3,1.1c3.4-.5,6.8-1.3,10.2-1.9s6.6-.9,9.8-1.4c6.7-1.2,13.4-2.3,20.2-3.2s13.1-1.9,19.7-2.6c3.5-.3,7-.5,10.4-.9l9.2-1.6h0a12.8,12.8,0,0,0,2.8,2.9,29,29,0,0,0,14.6,5.7c-.1,7.9-.3,15.8-.8,23.8a463.8,463.8,0,0,0-.6,71.7c.7,6.8,1.6,13.5,2.6,20.2h0a19.9,19.9,0,0,0,5.9,14.4c1.2.9,2.3-.6,1.6-1.7Z"/><path d="M459.8,316.7a86.7,86.7,0,0,0-24.4-.4l-12.6,1.3-6.3.8-2.9.4c-1.1.2-1.7.8-2.8,1s-1,1.8.1,1.9,1.8.5,3,.5h3.2l5.8-.4,13.2-1.1h0a85.1,85.1,0,0,1,12.4-.6,33.4,33.4,0,0,0,11.8,0c1.8-.6,1-3-.5-3.3Z"/><path d="M458.8,311.7c-2.9-1.3-5.8-2.5-8.7-3.5a44.3,44.3,0,0,0-8.4-3.6,28.8,28.8,0,0,0-9.3.6,60.4,60.4,0,0,0-9.6,1.9c-.7.2-.5,1.4.2,1.4h0a61.2,61.2,0,0,1,19.1.7,41.1,41.1,0,0,0,16,5.4,1.6,1.6,0,0,0,1.2-1.2,1.5,1.5,0,0,0-.5-1.7Z"/><path d="M463.2,302.3c-2.9-1.3-5.8-2.5-8.7-3.5a44.3,44.3,0,0,0-8.4-3.6,29,29,0,0,0-9.3.6,60.4,60.4,0,0,0-9.6,1.9c-.7.2-.5,1.3.2,1.4a61.2,61.2,0,0,1,19.1.7,41.1,41.1,0,0,0,16,5.4,1.9,1.9,0,0,0,1.3-1.3,1.7,1.7,0,0,0-.6-1.6Z"/><path d="M502.8,70.8a40.8,40.8,0,0,0-31-15A16.2,16.2,0,0,0,461,46.4a22.2,22.2,0,0,0-18.6,4.1,23.1,23.1,0,0,0-9.2,15.7,21.8,21.8,0,0,0,.4,8.8,12.7,12.7,0,0,0,4.3,7.9c2,1.3,5.8-.2,5.1-3.1s-2-4-2.6-6.2a16.9,16.9,0,0,1,5-17.2,18.4,18.4,0,0,1,13.6-5,14.4,14.4,0,0,1,9,4.9,24.6,24.6,0,0,0-7.9,3.1,32.2,32.2,0,0,0-10.6,11.4,39.9,39.9,0,0,0-6,15.3,1.3,1.3,0,0,0,.9,1.4,1.3,1.3,0,0,0,1.5-.8,93.9,93.9,0,0,1,5.8-11.4,53.3,53.3,0,0,1,8-9.1A21.3,21.3,0,0,1,479.1,62a36.6,36.6,0,0,1,18.8,11.1,22.1,22.1,0,0,1,1.1,5.7,7.2,7.2,0,0,1-2.1,6.7,15.8,15.8,0,0,1-15.4,1.6,69.3,69.3,0,0,0-17.4-3.2A30.4,30.4,0,0,0,448,88.5c-1.1.7-.3,2.6.8,1.9h.1a27.2,27.2,0,0,1,20.4-.9,69.8,69.8,0,0,0,20.1,5,16.6,16.6,0,0,0,14.9-9.3l.5-1.7,1.6,4.2c2.5,7.6,3,20.2-6,24.1h0a.7.7,0,0,0-.4,1,.7.7,0,0,0,1,.4c17.5-7.6,11-31.4,1.8-42.4Z"/><path d="M501.4,102.6c-6.1,4.9-15.9,1.3-21.8-1.4s-14-6.5-21-1.6a1.9,1.9,0,0,0-.5,1.9,1.7,1.7,0,0,0,1.7.9,13.2,13.2,0,0,1,5.6.2,9.7,9.7,0,0,0-1,5.8c.4,2.1,1.1,4.7,3.5,5a1,1,0,0,0,.9-.6.9.9,0,0,0,0-1,5,5,0,0,1-1-4.4,11.1,11.1,0,0,1,1.3-3.6l2.1.8a94.5,94.5,0,0,0,11.5,4.5,23.6,23.6,0,0,0,11.2.3,21.9,21.9,0,0,0,8.8-5.2,1,1,0,1,0-1.3-1.6Z"/><path d="M473.6,135.5c-6.8,1.2-12.1-6.5-14.3-12.1h0a.6.6,0,0,0-.8-.3.6.6,0,0,0-.4.7,17.8,17.8,0,0,0,5.6,11.4c2.7,2.5,7.2,5.3,10.7,2.3h0a1.3,1.3,0,0,0,.3-1.3,1.2,1.2,0,0,0-1.1-.7Z"/><path d="M483.3,129.9l-2.9-1-2.8-.6-.6,1,1.3,1.5.2.6v.3h0l.4,1,.6.5.9-.2.5-.7,1,.5c1.9.8,3.2-2.4,1.3-3Z"/><path d="M493.1,123.9a22.8,22.8,0,0,1,0-3.7l1.7.4h0a.9.9,0,0,0,.9-.6,1,1,0,0,0-.4-1l-1.8-.8h0a4.5,4.5,0,0,1,1.6-2.4.8.8,0,0,0,.2-1,.8.8,0,0,0-.9-.3,4.9,4.9,0,0,0-2.8,2.3l-2.3-2.7c-1-1.2-3.3,0-2.5,1.5a9.8,9.8,0,0,0,4.1,3.7,22.9,22.9,0,0,1-.7,6.4,1,1,0,0,0-.7,1.6l.3.3a1.2,1.2,0,0,0,1.4.3c1.9-.6,1.9-2.4,1.9-4Z"/></g></svg>