<svg xmlns="http://www.w3.org/2000/svg" viewBox="0 0 512 368"><g fill="var(--main, #000)"><path d="M510.5,332.4a143.2,143.2,0,0,0-22.2-12.7,43.9,43.9,0,0,0-22.2,0v.5h0a48.5,48.5,0,0,1,26.3,8.4,29.1,29.1,0,0,0,16.7,9.3,3,3,0,0,0,2.7-2.3,2.8,2.8,0,0,0-1.4-3.2Z"/><path d="M346.9,229.6c-4.1-5.4-5.2-11.8-8.8-17.3S329.8,200.2,326,193c-5.5-10.4-12.5-19.9-18.2-30.2-6.9-12.4-12.6-25.5-18.4-38.5S278.3,95,270.8,81.4A110.8,110.8,0,0,0,211,29.1a52.2,52.2,0,0,0-31.9,3.5c-12.4,5.8-15.2,13.2-22.5,24.2l.6.5h0a54.5,54.5,0,0,1,31-20.1,47.3,47.3,0,0,1,39.6,10.1,129.5,129.5,0,0,1,31.7,31.4A242.2,242.2,0,0,1,276.7,116c5.7,12.6,10.9,25.5,16.8,38h0a254.2,254.2,0,0,0,15.6,25.4c5.1,8,10.1,16.1,15.4,24,3.5,5.3,8.5,9.2,12.2,14.3a82.8,82.8,0,0,0,9.3,12.7Z"/><path d="M451.6,318.2a116.3,116.3,0,0,1-32-19.3,397.9,397.9,0,0,1-67.9-65l-.5.4A276.5,276.5,0,0,0,416,303.8a117.1,117.1,0,0,0,28.7,17.4,84.6,84.6,0,0,0,19.6,6.3c4.3.9-5.1-6.1-12.7-9.3Z"/><path d="M212,82c-6.8,8.9-9.4,20-16,29.1a361.9,361.9,0,0,1-26,30.8,504.5,504.5,0,0,0-55.4,61.4,1.4,1.4,0,0,0,.3,1.7,1.3,1.3,0,0,0,1.8-.1c18.1-21.1,40.3-38.1,59-58.6h0a205,205,0,0,0,24.2-30,145.8,145.8,0,0,0,12.7-33.9Z"/><path d="M148.5,71.1c-4.8,12-11.7,23.2-16.6,35.2h0a338.9,338.9,0,0,1-15.8,35.3,101.2,101.2,0,0,1-16.3,24.6c-8.3,8.4-16.6,16.1-25.6,23.9h0a1.4,1.4,0,0,0-.3,1.9,1.4,1.4,0,0,0,2,.3,155.5,155.5,0,0,0,30.8-23.4,101.8,101.8,0,0,0,14.4-22.2,471.3,471.3,0,0,0,28.1-75.4Z"/><path d="M74.8,251.2l7.1-9.1c8.4-10.5,18.5-19.7,26.6-30.5l-.7-.6c-4.7,5.1-11.8,8.4-16.9,13.3a114.6,114.6,0,0,0-12.3,12.8,216.9,216.9,0,0,0-13.1,18.3c-1.6,1.8-3.3,3.6-4.8,5.4l-6.3,8.3a50.3,50.3,0,0,1-5.2-3.9,32.5,32.5,0,0,0-6.7-3.4,13.9,13.9,0,0,0-6-1.4c-1.1.1-2.8.9-4.3,1.1a132.3,132.3,0,0,1,17-43.8c6.1-7,12.6-13.6,19.3-19.9l-.4-.6a95.3,95.3,0,0,0-30.1,26,80.8,80.8,0,0,0-7.9,22.4c-.7,3.5-1.6,7.1-2.4,10.6L25,265.5A124.7,124.7,0,0,1,9.3,303.4c-6.6,9.2-11.6,11.9-8.2,22.8a1.1,1.1,0,0,0,1.1.7,1.1,1.1,0,0,0,1.1-.8c2.7-10.2,11.3-17.2,16.1-26.5h0a146.6,146.6,0,0,0,10.1-28.3l2.2-7.9,1.2.5a16.6,16.6,0,0,0,3.2.3,14.3,14.3,0,0,1,5.1,2.5,29,29,0,0,1,6,4.4,33.9,33.9,0,0,0,3.4,3.1c-2.1,2.7-4.2,5.5-6.5,8.2-6,7.3-22.5,27.7-18,38.1,1.2,2.9,5.1,1.6,6-.6l1.8-3.7h0a56.2,56.2,0,0,0,14.7,8.3,38.7,38.7,0,0,0,25.2,4.1A34.6,34.6,0,0,0,87,332.8a3.7,3.7,0,0,0,3.9-3.1,3.7,3.7,0,0,0-3-4A76.6,76.6,0,0,1,66.5,316a56.4,56.4,0,0,1-15.2-10.9c-.4-.5-1.5,0-1.1.7h0a45.7,45.7,0,0,0,13.2,16.1,64.6,64.6,0,0,0,8.4,5.6c-3.2-.9-6.6-2.4-9.5-3.4a43.4,43.4,0,0,1-8.6-3.6c-3.5-2.2-7.3-3.9-10.7-6.2a69.1,69.1,0,0,1-5.7-5.1,286.8,286.8,0,0,1,17.5-29.8c6.3-9.6,13.3-18.9,20-28.2Z"/><path d="M71.4,333.4c-9.9.8-20.1.2-30,.3A100.6,100.6,0,0,1,.9,331.2l-.3.5c9.9,9.2,26.2,7.1,38.8,7.3,9.9.1,25.6,3.7,33.1-3.8.7-.7-.2-1.9-1.1-1.8Z"/><path d="M232,170.2a62.3,62.3,0,0,1-7.3-24.9c-.6-10.4,2.5-26-3.8-35.4a40.8,40.8,0,0,0,26.2-25.8l-.7-.4c-12.9,18.6-37.9,18.7-54.2,32.7a1.7,1.7,0,0,0,1.7,3L201,117a347.3,347.3,0,0,1-29.1,45.8,207.8,207.8,0,0,1-24.5,26.8c-8.4,7.2-17.6,14.6-25.4,22.5-14.9,15-29.3,30.6-43.9,46h0A152.9,152.9,0,0,0,47.3,300l.3.2h0a317.1,317.1,0,0,1,38-42.2,565.7,565.7,0,0,1,47-47.2c8.2-6.8,16.4-13.7,24.3-20.8a278.1,278.1,0,0,0,21.7-25.5A373.2,373.2,0,0,0,209.9,114c2.5-.8,5.1-1.7,7.6-2.7a246.4,246.4,0,0,0,1.1,43.8,52.6,52.6,0,0,0,7.4,17.4,172.6,172.6,0,0,0,11.6,18.8,1.5,1.5,0,0,0,2,.3,1.4,1.4,0,0,0,.3-2c-3.5-5.5-4.7-13.4-7.9-19.4Z"/><path d="M302.9,216.9c-6.4-6.4-18.2-2.9-26.3-3.8h0a80.9,80.9,0,0,1-32.7-11.4l-.7.6c10.3,22.5,38.2,16.8,58,18.6a2.1,2.1,0,0,0,2.3-1.3,2.3,2.3,0,0,0-.6-2.7Z"/><path d="M487.6,337a119.7,119.7,0,0,1-25.1-4.8c-8-1.8-16.2-2.3-24.3-4.2h0a83.7,83.7,0,0,1-42.4-21.1,225.8,225.8,0,0,0-39.7-29.7,123.4,123.4,0,0,1-45.3-41.7l-.5.4a164.4,164.4,0,0,0,11.4,20.5c-1.2,2-2,4.3-3.1,6.2s-3.1,4.7-4.7,7h0a20.5,20.5,0,0,1-17,10.4l-2.5-1.6h0a42.3,42.3,0,0,1-9.1-14,15.7,15.7,0,0,1,4.3-.4,2.4,2.4,0,0,0,2.4-2.4,2.3,2.3,0,0,0-2.4-2.3,10.4,10.4,0,0,0-6,2.3,29.1,29.1,0,0,0-2.6-3.3l-.5.5a9.4,9.4,0,0,1,2,3.5l-.8.7a17.9,17.9,0,0,0-2.7,2.8c-.8,1-2,1.2-2.9,2.2l.5.5h0a16.4,16.4,0,0,1,6.2-3.4h.4a34.9,34.9,0,0,0,3.9,15.5,32.7,32.7,0,0,0,20.6,11.1c11.1,1.9,29.4-1,34.4-14l2.2,1.4c9.2,6,19.1,10.3,27.9,17s13.9,12.8,21.3,18.5a149.2,149.2,0,0,0,56.6,21,107.7,107.7,0,0,0,37.5,3.3c.9,0,.9-1.7,0-1.8ZM335.9,273.9c-3.1,11.2-18.3,12.1-29.9,9.4h0a22.2,22.2,0,0,0,7.9-4.5,51.1,51.1,0,0,0,7.7-9.8,27.8,27.8,0,0,0,3.1-8.3A72.1,72.1,0,0,0,336,272.8Z"/><path d="M301.7,230.7c-7.7-6.3-29.8-3.4-32.6,7.9l.7.2c1.2-4.1,12.7-4.9,15.9-5.1h0a118.7,118.7,0,0,0,14.6.5,1.5,1.5,0,0,0,1.9-1v-.3a1.9,1.9,0,0,0-.6-2.2Z"/><path d="M272,248.7c-.5-1.6-2.6-1.2-3.3,0h0a6,6,0,0,1-1.4,2.1,2.3,2.3,0,0,0-.2,2.4,2.2,2.2,0,0,0,2.1,1,3.7,3.7,0,0,0,2.6-2.1,4.1,4.1,0,0,0,.2-3.4Z"/><path d="M282.4,120.6A81.5,81.5,0,0,0,240.5,132c-10.9,6.2-22.6,14-18,27.6.5,1.4,2.9.1,1.6-1.2l-.5-.5h-.4c4.3-4.3,6.6-9.6,11.4-13.5h0A67.4,67.4,0,0,1,249,136a75.4,75.4,0,0,1,32.5-8.4c4.4.1,5.5-6.7.9-7Z"/><path d="M294.9,145.4c-2.1.6-3.7,0-5.8.7a26.1,26.1,0,0,0-9.9,7.8A61.8,61.8,0,0,0,261.1,183c-4.4,18.2,5.4,36.5,26.1,33.1,1.1-.2,1.5-1.9.3-2.2h0a36.5,36.5,0,0,1-17.3-9.5c-6.8-8.9-2.3-23.3,2.3-32.2h0A82.2,82.2,0,0,1,288,152.4a63.2,63.2,0,0,0,7.4-6.3Z"/></g></svg>