<svg xmlns="http://www.w3.org/2000/svg" viewBox="0 0 512 368"><g fill="var(--main, #000)"><path d="M296.3,43.9a37.2,37.2,0,0,0-17.6-31.5,32.3,32.3,0,0,0-16-4.6,32.7,32.7,0,0,0-16.2,4,31.2,31.2,0,0,0-15.6,22.3,47.1,47.1,0,0,0,0,9.2,1.2,1.2,0,0,0,2.4-.2,25.9,25.9,0,0,1,4.5-14,32.9,32.9,0,0,1,10-10,26.9,26.9,0,0,1,25.8,0,25.2,25.2,0,0,1,12.3,15.2,34.1,34.1,0,0,0-5.7-1.6c-4.1-.8-8.2-1-12.2-2s-8.3-4.3-7.7-8.7c.3-1.9-2.4-2.2-2.9-.4h0a12.5,12.5,0,0,0,1.8,10.8l1.4,1.7a31,31,0,0,1-8.4,6.9A74.7,74.7,0,0,1,241,45c-1.8.5-1,3.1.7,3h0a32.7,32.7,0,0,0,23.5-10.3,23.2,23.2,0,0,0,3.9,1.8c4.2,1.3,8.6,1.7,12.7,3.1a9.7,9.7,0,0,1,6.2,6.7,64.4,64.4,0,0,1-4.4,23.4,59.5,59.5,0,0,1-19.1,25.2,1.5,1.5,0,0,0-.3,1.9,1.6,1.6,0,0,0,1.8.7,39.4,39.4,0,0,0,14.4-9,49.6,49.6,0,0,0,9.4-13.8,68,68,0,0,0,6.5-33.8Z"/><path d="M254.3,92.7a57.6,57.6,0,0,1-13.9-15.6,49.6,49.6,0,0,1-6.2-20.2c-.1-1.1-1.8-1.2-1.9-.1h0a42.8,42.8,0,0,0,7.4,26.4l1.8,6.2a27.4,27.4,0,0,1,1.3,8.5,24.6,24.6,0,0,1-5.7,13.2,25.1,25.1,0,0,1-9.8,5.5,55.6,55.6,0,0,1-12.2,2.9,36.8,36.8,0,0,0-12.5,4.1,24.2,24.2,0,0,0-9.4,9.9,96.9,96.9,0,0,0-6.6,16.4,162.4,162.4,0,0,0-5.5,18,331.6,331.6,0,0,0-7.9,43.2c-.2,2,2.8,3,3.5,1a307.4,307.4,0,0,0,10.9-38.9,158.3,158.3,0,0,1,10.2-35.7,18,18,0,0,1,9.4-9.2,65.6,65.6,0,0,1,12.4-3.7l2.9-.7a16.6,16.6,0,0,0-1.2,3.1,24.2,24.2,0,0,0-.3,6,32.3,32.3,0,0,0,2.7,11.1,30.9,30.9,0,0,0,6.1,9.5,17.5,17.5,0,0,0,4.4,3.3,11.4,11.4,0,0,0,5.2.9,1.6,1.6,0,0,0,1.8-1.2,1.7,1.7,0,0,0-.9-2.1,18.1,18.1,0,0,1-3.3-2.9,17.5,17.5,0,0,1-2.9-3.2,30.3,30.3,0,0,1-4.3-7.9,40,40,0,0,1-2.2-8.9c-.3-1.5-.4-3-.6-4.5s-.6-2.7-.7-4a35,35,0,0,0,6.4-1.5,23.5,23.5,0,0,0,10.3-7.3A18,18,0,0,0,245.7,98c-.7-2.6-.9-5.4-1.7-8l-.6-2a35.4,35.4,0,0,0,9.4,7.3c1.5.8,2.8-1.5,1.5-2.6Z"/><path d="M255.7,114.8a116.1,116.1,0,0,0-8.5,28.2,129.7,129.7,0,0,1-2.2,13.9,101.4,101.4,0,0,1-4.8,13c-.7,1.4,1.1,3.3,2.5,2.2h0a24.3,24.3,0,0,0,7.9-10.8,50,50,0,0,0,2.4-14.9c.5-10.4,3.4-20.5,4.9-30.8.1-1.3-1.7-2-2.2-.8Z"/><path d="M238.3,176.4a49.2,49.2,0,0,1-15.1,9.4c-4.3,1.9-8.7,3.8-12.9,6l.9-1.5a41.9,41.9,0,0,0,3.3-9.8,35.6,35.6,0,0,0,.1-10.8q-.4-3-1.2-6c-.5-2.3-1.4-4.6-1.7-6.9s-3.1-1.4-2.8.3h0a54.4,54.4,0,0,1,.3,5.7l.2,5.7h0a55.4,55.4,0,0,1-.5,10,30.1,30.1,0,0,1-2.8,8.8c-1.3,2.9-2.8,5.8-4.4,8.6a2,2,0,0,0-.3,1.1c-4.9,2.9-9.9,5.8-14.7,8.8a24.8,24.8,0,0,0-10.6,11.8,1,1,0,0,0,.6,1.3c.5.3,1,0,1.3-.5a25.3,25.3,0,0,1,13.8-9.7c6.7-2.9,13.7-5.1,20.2-8.3h0a138.6,138.6,0,0,0,17.4-9.4,34.8,34.8,0,0,0,11.9-12.8c.9-2-1.7-3.1-3-1.8Z"/><path d="M268,143.2a74.7,74.7,0,0,0-1.1-11.6c-.7-4.1-1.7-8-2.4-12-.4-2.1-3.7-1.5-3.7.6,0,6.5-1,13.1-1.3,19.6s-.8,13-.9,19.6h0a96.4,96.4,0,0,1-1.2,18.6,30.7,30.7,0,0,1-7.5,15.3,155.2,155.2,0,0,1-27.1,21.5,292.3,292.3,0,0,1-29.7,18.3l-8.5,4.5c-2.4,1.1-5.9,3.4-8.5,2.7-4.6-1.1-2.8-8.9-4.1-12.4-.6-1.4-2.8-.7-2.3.7,1.6,4.4-.4,9,1.2,13.3,2.4,6.5,10.1,4.6,15,2.5h0a210.5,210.5,0,0,0,34.2-18A231.7,231.7,0,0,0,250,202.1a41.6,41.6,0,0,0,11.3-15,133.4,133.4,0,0,0,4.5-19.9,84,84,0,0,0,2.2-24Z"/><path d="M275.6,139a69.1,69.1,0,0,0-7.1-20.3c-.5-.9-2-.2-1.8.7,1.3,7.1,3.3,14,4.7,21s2,14.4,2.8,21.5c.3,2.6,3.8,2,3.8-.4h0a95.1,95.1,0,0,0-2.4-22.5Z"/><path d="M340.3,213.6a37,37,0,0,0-4.8-6.9,29.5,29.5,0,0,0-7.2-5.1l-.2-.7c-.3-.7-.7-1.3-1-2l-2.5-4.8h0a92.8,92.8,0,0,1-4.5-10.2,52.6,52.6,0,0,1-4.2-21.8c.1-1.6-2.4-2-2.6-.4a118.9,118.9,0,0,0-.8,12h0a52.8,52.8,0,0,0,1.4,11.8,50.1,50.1,0,0,0,3.6,10.5l-5.9-2.8-9.1-4.6-9-4.2h0A61.4,61.4,0,0,1,278,172.1c-.8-.8-2.2.2-1.5,1.1,4,4.8,8.5,9.1,12.9,13.6a68.8,68.8,0,0,0,16.4,12.4c5.5,3,11.2,5.4,16.7,8.3a77.1,77.1,0,0,1,7.2,4.4,39.6,39.6,0,0,1,7.4,4.9c1.9,2,4.5-1.1,3.2-3.2Z"/><path d="M349,236.4a9,9,0,0,0-6.6-1.1,28.4,28.4,0,0,1-5.8-.5,44.7,44.7,0,0,1-11.8-4.1,128.6,128.6,0,0,1-20.7-13.8,305.1,305.1,0,0,1-37.2-33.8.9.9,0,0,0-1.3-.1.8.8,0,0,0-.2,1.2,150.6,150.6,0,0,0,25.9,32.5,158.1,158.1,0,0,0,16.2,13.2,90.8,90.8,0,0,0,18.3,10.8,47.7,47.7,0,0,0,11.8,3.1c3.6.4,9.6,1,12-2.5a3.5,3.5,0,0,0-.6-4.9Z"/><path d="M353.5,215a133.9,133.9,0,0,0-2.8-19c-2.8-12.8-7.2-25.1-10.9-37.7a88.6,88.6,0,0,0-11.7-30.9,23.2,23.2,0,0,0-11.9-8.3,93.8,93.8,0,0,0-14.7-2.4,20.3,20.3,0,0,1-14.1-6.1,28.5,28.5,0,0,1-4.9-16c0-1.4-2.4-1.5-2.4-.1h0A44,44,0,0,0,281,109a18.3,18.3,0,0,0,8.8,11.2,32.5,32.5,0,0,0,13,3,32.6,32.6,0,0,1-3.4,19.4,27.9,27.9,0,0,1-6.1,8,33.9,33.9,0,0,1-4.2,3.3,15.3,15.3,0,0,1-6.3,2.6c-1.3,0-1.1,1.8,0,2.1h0a11.2,11.2,0,0,0,6.3.1,22.5,22.5,0,0,0,6.1-3.3,35.6,35.6,0,0,0,14.1-31.6,25.4,25.4,0,0,1,8.6,2.7,22.1,22.1,0,0,1,8.8,10.3,131,131,0,0,1,5.4,14.8c4,12.6,7.7,25.3,10.9,38.1h0a159.3,159.3,0,0,1,4.5,43.5c0,2,3,3.4,3.7,1.1h0a54.7,54.7,0,0,0,2.3-19.3Z"/><path d="M232.3,246.7a71.2,71.2,0,0,0-6.9-13.8c-.8-1.4-3.2-.1-2.5,1.3a31,31,0,0,1,4,13.9,15,15,0,0,1-2.2,5.4c-1.2,1.8-2.4,3.5-3.7,5.1-2.6,3.7-5.2,7.4-7.6,11.1a32.6,32.6,0,0,0-5.7,12.9,2.1,2.1,0,0,0,1.2,2.1,2,2,0,0,0,2.3-.6c3-4.1,5.3-8.6,8.3-12.7s7.3-7,10.2-11.1h0a16.4,16.4,0,0,0,3.3-6.6,15.3,15.3,0,0,0-.7-7Z"/><path d="M322.7,280.5a44.3,44.3,0,0,0-6.1-11.6c-2.4-4.1-4.8-8.2-7.5-12.1a58,58,0,0,1-3.4-5.2,11.5,11.5,0,0,1-.5-6.1,59.8,59.8,0,0,1,.7-6.1,51.2,51.2,0,0,1,1.4-6.8,1.4,1.4,0,0,0-.7-1.9,1.5,1.5,0,0,0-1.9.7q-1.6,3.2-3,6.3a53.8,53.8,0,0,0-2,6.5,24.4,24.4,0,0,0-1,7.1,12,12,0,0,0,2.5,6.3c2.7,4.2,5.6,8.4,8.6,12.4,1.5,2.1,3.1,4.2,4.7,6.2a24.6,24.6,0,0,0,5.1,6c1.2.9,3.5,0,3.1-1.7Z"/><path d="M217.8,289.7a37.3,37.3,0,0,1-12.4,1.1,83.9,83.9,0,0,0-11.2-.4,61.9,61.9,0,0,1-11.4-.8c-3.7-.7-7.3-1.8-11-2.6h0a26.9,26.9,0,0,0-19.1,1.7,16.9,16.9,0,0,0-9.5,11.2c-.4,1.7,2.2,2,2.7.4a11.7,11.7,0,0,1,12.2-7.5,77.5,77.5,0,0,1,18.5,4.1,46.6,46.6,0,0,0,21,1.2,43.7,43.7,0,0,0,5.2-1.2,48.4,48.4,0,0,0,4.7-2.1,78.3,78.3,0,0,1,10.7-3.4c.9-.3.5-1.9-.4-1.7Z"/><path d="M391.7,329c-7.5,2.9-15.2,5-22.8,7.4h0a142.1,142.1,0,0,1-23.1,5A111.4,111.4,0,0,1,322,341a213.2,213.2,0,0,1-22.5-3,364,364,0,0,1-43.6-11.7c-14.6-4.9-29.2-10.3-44.1-14.2a142.8,142.8,0,0,0-25.1-4.9,165.8,165.8,0,0,0-25.4-.5,1.3,1.3,0,0,0-.1,2.6,140.1,140.1,0,0,1,22.3,4.6c7.3,2.5,14.8,4.2,22.2,6.5,14.7,4.6,29.3,9.6,43.9,14.4h0a322.9,322.9,0,0,0,45.3,12.4,139.1,139.1,0,0,0,23.2,2.2,169.8,169.8,0,0,0,23.7-2.2,215.6,215.6,0,0,0,26.6-5.2,65.4,65.4,0,0,0,12.4-4.5c4.1-2,8.1-4.1,12.1-6.4,1.2-.7,0-2.6-1.2-2.1Z"/><path d="M398.8,308.2A38.6,38.6,0,0,0,375,291.6a90.7,90.7,0,0,0-32.8-2.6c-4.9.4-9.7.9-14.5,1.6h0a7.6,7.6,0,0,0,2-2,2.4,2.4,0,0,0,.4-2.4,2.9,2.9,0,0,0-2-1.6,33.5,33.5,0,0,0-12,2.9,115.8,115.8,0,0,1-12,2.4,173.3,173.3,0,0,1-24.9,2.3,144,144,0,0,1-24.6-1.8c-4.1-.7-8.2-1.6-12.2-2.6l-6-1.6a43.7,43.7,0,0,1-6.2-1.7,1.6,1.6,0,1,0-1.3,2.9c1.6.8,2.9,1.9,4.4,2.7l4.5,2.3h0a84.1,84.1,0,0,0,9.5,3.6,117.5,117.5,0,0,0,12,3.2l-9.3.8h0a17.3,17.3,0,0,1-15.4-4.9c-1.1-1.3-3.7-.6-3.3,1.3h0a14.6,14.6,0,0,0,9.3,9.9,37.9,37.9,0,0,0,17.4.5c12.3-1.3,24.5-2.8,36.8-4.3s23.8-3.3,35.7-4.9h0a112.8,112.8,0,0,1,34.8.1,65,65,0,0,1,15.4,5.2,119.4,119.4,0,0,1,13.5,8.7c2.2,1.4,6.1-.6,4.6-3.4Z"/><path d="M149.1,314a80.3,80.3,0,0,0-29.3,17.5,26.4,26.4,0,0,0-6.7,13.7c-.6,4.4-.2,11.8,4.8,13.6h0a3.5,3.5,0,0,0,4.5-1.8c.8-2.1-.6-3.1-1.7-4.6h0a8.9,8.9,0,0,1-.8-5.8,20.8,20.8,0,0,1,5.9-11.9,61.8,61.8,0,0,1,11.2-8.6c4.7-3,9-6.4,13.4-9.7a1.4,1.4,0,0,0,.4-1.8,1.6,1.6,0,0,0-1.7-.6Z"/><path d="M249.5,342.5a52.8,52.8,0,0,0-23.4.1,183.1,183.1,0,0,0-24.3,5.9c-7.2,2.2-14.5,4.4-21.8,6.1h0a154.3,154.3,0,0,1-22.5,3.2,91.4,91.4,0,0,1-11.7.3,65.7,65.7,0,0,1-12.5-2.4c-1.7-.5-2.6,2.1-1.3,3h0a59,59,0,0,0,43.7,8.1,318.6,318.6,0,0,0,47-13.3c8.8-2.9,18-4.1,26.7-6.9a2.4,2.4,0,0,0,1.4-2,2.3,2.3,0,0,0-1.3-2.1Z"/><path d="M394.3,335.9A91.6,91.6,0,0,1,373.7,346a94.1,94.1,0,0,1-22.1,6.7,159.3,159.3,0,0,1-52-1.7c-5.2-.8-10.5-1-15.7-2l-7.8-1.7c-2.7-.5-5.5-.7-8.2-1.3-1.2-.3-1.7,1.7-.6,2s4.4,1.6,6.6,2.5a65.4,65.4,0,0,0,7.5,2.4c4.7,1.4,9.3,3.6,14.1,4.9h0a158.7,158.7,0,0,0,29,5.1,106.1,106.1,0,0,0,50.7-7.4,45.4,45.4,0,0,0,11.6-7.3,116.1,116.1,0,0,0,9.4-10.4c1-1.1-.7-2.9-1.9-1.9Z"/><path d="M254.1,57c-1.7-1.6-4.6-1.1-6.8-1.4a34.1,34.1,0,0,1-7.6-1.5.8.8,0,0,0-1.1.4,1.1,1.1,0,0,0,.2,1.2,19.2,19.2,0,0,0,7.6,4.9,7.7,7.7,0,0,0,8.1-.8,2,2,0,0,0-.4-2.8Z"/><path d="M268.9,57c1.7-1.6,4.6-1.1,6.7-1.4a33.9,33.9,0,0,0,7.7-1.5.9.9,0,0,1,1.1.4,1.1,1.1,0,0,1-.2,1.2,19.2,19.2,0,0,1-7.6,4.9,7.7,7.7,0,0,1-8.1-.8,2,2,0,0,1,.4-2.8Z"/><path d="M265.5,80.3c-1,.8-3,.5-4.2.5h-4.1c-1.2-.1-1.9,1.7-.6,2.2a13.8,13.8,0,0,0,10.9,0c1.7-1-.4-3.9-2-2.6Z"/><path d="M307.6,43.3A47.2,47.2,0,0,0,283.9,3.7a32.3,32.3,0,0,0-24.2-2.4,1.2,1.2,0,0,0,.6,2.4,31,31,0,0,1,19.5,4.2,38.5,38.5,0,0,1,13.6,15,56.4,56.4,0,0,1,4.5,40.5,55.8,55.8,0,0,1-4,11,52.8,52.8,0,0,1-2.7,5.3c-1.1,1.9-1.8,3.7-2.7,5.6h0a2.9,2.9,0,0,0,.9,3.6,3.1,3.1,0,0,0,3.8.1,21.4,21.4,0,0,0,4.3-4.2q1.8-2.7,3.3-5.4a53.5,53.5,0,0,0,4.4-11.5,68.1,68.1,0,0,0,2.4-24.6Z"/><path d="M242,7.8A37,37,0,0,0,227.3,17a38.8,38.8,0,0,0-9,15.1,76.4,76.4,0,0,0-3.1,20.8A50.9,50.9,0,0,0,218.9,74c2.6,6.2,6.5,15,13.4,17.3,2.3.7,5.1-1.3,4-3.9a69.5,69.5,0,0,0-6.2-9.1,58.3,58.3,0,0,1-4.8-9.7,53.4,53.4,0,0,1-3.5-11.8,65.3,65.3,0,0,1,.2-12.5A40.1,40.1,0,0,1,228.6,24a45.4,45.4,0,0,1,14.6-14c1.2-.8,0-2.6-1.2-2.2Z"/></g></svg>