<svg xmlns="http://www.w3.org/2000/svg" viewBox="0 0 512 368"><g fill="var(--main, #000)"><path d="M386.6,193.9c-8.5,4.1-16.5,9.8-25.3,13.4a64.5,64.5,0,0,1-32.9,1.7,201.1,201.1,0,0,0-31.9-2.8c-10.3.3-20.6,1.5-30.9,2.5a3.1,3.1,0,0,0-2.8.2h-.1a302.3,302.3,0,0,1-60.9.2c-9.8-1.1-18.8-6-28.7-7.2s-21.3-.8-32-1.2-24-1.1-36-2.1h0A76.1,76.1,0,0,1,88,196c-2.6-.8-5.1-1.8-7.6-2.8h0a75.9,75.9,0,0,0-7.8-2.2c-1.4-.4-2.2,1.7-.8,2.2h0a136.7,136.7,0,0,1,12.1,7.6,52.4,52.4,0,0,0,14.4,4.5l1.1.2L94.1,208c-4.5,1.9-11.6,4-15.7.3-1-.9-2.3.6-1.5,1.6a12.8,12.8,0,0,0,6.6,5,18,18,0,0,0,9.5-.1,84.6,84.6,0,0,0,17.4-7.7c7,.8,14,1.3,21,1.6,10.7.6,21.5.6,32.2,1.1-4.8,4.5-8.7,10.2-13,14.6a176.3,176.3,0,0,1-28.8,21.4,1.3,1.3,0,0,0,1.3,2.1h0a154.2,154.2,0,0,0,31.5-16.3,141.8,141.8,0,0,0,10.5-11.4,70.2,70.2,0,0,1,11.1-9.3l3.5.7c4.7,1.1,9.3,2.5,14.1,3.3h0A202.8,202.8,0,0,0,225,217h2.2a151.4,151.4,0,0,0-18.1,18.6c-.7.8.6,2,1.3,1.3a80.9,80.9,0,0,1,13.9-10.8,152.8,152.8,0,0,1,15.2-8.7l.6-.4c3.4,0,6.7-.1,10-.3a258.9,258.9,0,0,0-32.9,27.1L215,246a69.1,69.1,0,0,0-7.7-2.5,38.9,38.9,0,0,1-8.6-4.9,54.4,54.4,0,0,1-14.3-14.8,1.3,1.3,0,1,0-2.3,1.1,54.8,54.8,0,0,0,4.6,10.9,32.9,32.9,0,0,0,6.9,8,95.8,95.8,0,0,0-20.1,12.3,56.7,56.7,0,0,0-8.5,11c-2.5,4.2-4.2,8.7-6.4,13-.6,1,1.1,1.9,1.7.9h0a70.9,70.9,0,0,1,18.5-20.8c6.8-4.7,15.2-6.6,21.7-11.6l4.2,2,4.1,1.5A132.8,132.8,0,0,0,185,284a1,1,0,0,0,1.7.9,82.2,82.2,0,0,1,16.8-19l19.3-16.8a363.2,363.2,0,0,1,43.7-33.4,424.5,424.5,0,0,1,56.4-2.8,119.4,119.4,0,0,0,35.8-.6,102.9,102.9,0,0,0,15.4-5.1c5.1-2.3,10-5.2,15.1-7.5s1.1-7.5-2.6-5.8Z"/><path d="M387.4,180.9a13.1,13.1,0,0,0-10.6-3.5c-4.3-.1-8.5.1-12.8.2-2.8.1-5.8.1-8.6.3h0a32.7,32.7,0,0,0-13.9-.9,47.1,47.1,0,0,0-16.9,4.1c-1,.5-.6,2.3.6,2h0a48.3,48.3,0,0,1,16.4-2.8l1.4.2a34.7,34.7,0,0,0-4.6,2.7c-1.2.7,0,2.3,1.1,1.9a43,43,0,0,1,13.8-1.4h11.4c3.8-.1,7.6-.3,11.4-.2h0a56.9,56.9,0,0,0,10.1.3,1.8,1.8,0,0,0,1.5-1.2,1.9,1.9,0,0,0-.3-1.8Z"/><path d="M235.7,337.3a88.5,88.5,0,0,1-31.2-1.4,44,44,0,0,1-23.2-7.7c-13.9-11-17.3-29.9-26.8-44.2a118.7,118.7,0,0,0-20.6-21.3c-8-7.1-16.2-13.9-24.5-20.6-12.3-10-24.5-20-35.7-31.1h0a75.7,75.7,0,0,1-16.1-21.6,53.8,53.8,0,0,1-4.6-25,1,1,0,0,0-.8-1,.9.9,0,0,0-1.1.6,47.3,47.3,0,0,0,11.5,42.8,192.2,192.2,0,0,0,34.9,34.9c8.1,6.7,16.2,13.4,24.2,20.2a184.9,184.9,0,0,1,23.9,22.9c11.7,14.6,14.1,34.5,28.2,47.4h0a40.5,40.5,0,0,0,26.1,10.5,117.2,117.2,0,0,0,36.4-1.8c2.2-.6,1.8-4.1-.6-3.6Z"/><path d="M336.6,222.8a61.9,61.9,0,0,0-5.7,3,68,68,0,0,0-5.7,5c-3.7,3.4-7.1,7-10.6,10.6-6.5,6.9-13.1,13.6-19.2,20.9a190.1,190.1,0,0,0-16.7,23c-4.7,7.8-8,16.3-12.4,24.3a72.6,72.6,0,0,1-8.1,11.8,94.8,94.8,0,0,1-10.3,11.7.9.9,0,0,0-.1,1.3,1,1,0,0,0,1.4.2,111.7,111.7,0,0,0,10-8.2,107.8,107.8,0,0,0,7.7-9,225,225,0,0,0,14.3-22.1A239.5,239.5,0,0,1,316.5,251l11-11.8c1.8-2,3.8-4,5.8-5.9s3.8-4.4,5.8-6.4.1-5.4-2.5-4.1Z"/><path d="M482.3,109.5a26.9,26.9,0,0,0-23,7.4l-3.6,3.5h0a20.3,20.3,0,0,0-2.3-3.4l-3.8-4.8c-1.4-1.3-2.9-2.5-4.4-3.7s-2.7.8-1.7,1.9a33,33,0,0,1,5,9,32.8,32.8,0,0,0,2.2,6.7L449,128c-3.7,4.1-7.5,8.1-11.2,12.1-7.5,7.9-15.1,15.6-22.8,23.3-3.6,3.7-7.3,7.4-11.1,11s-8,7.8-12.2,11.6h0a.9.9,0,0,0-.1,1.3,1,1,0,0,0,1.4.2c4.5-2.8,8.8-5.4,13-8.6s8.2-6.4,12.1-9.8a277.8,277.8,0,0,0,22.1-21.3c7-7.3,13.8-14.8,20.6-22.3a29.5,29.5,0,0,1,9.9-7.6,60.1,60.1,0,0,1,11.8-3,2.8,2.8,0,0,0,2.2-2.8,2.7,2.7,0,0,0-2.4-2.6Z"/><path d="M505.6,25.4a271.4,271.4,0,0,1-27.2,33.2c-11.6,12-22.1,25.1-34.6,36.2s-24.7,18.3-36.7,27.8c-6.1,4.9-12.2,9.7-18.8,14.1s-13.6,8.4-20.6,12.3a421.5,421.5,0,0,0-44,27c-1,.7.1,2.5,1.2,1.9h0a562.6,562.6,0,0,0,82.6-46.5c12.4-9.8,25.9-18.1,38-28.2h0a411.2,411.2,0,0,0,35-36.1,101.5,101.5,0,0,0,28.4-40,1.8,1.8,0,0,0-.9-2.2,1.9,1.9,0,0,0-2.4.5Z"/><path d="M486.3,34A262.9,262.9,0,0,1,457,65.3c-12.4,11.2-23.8,23.6-37,33.9s-25.8,16.6-38.4,25.3c-6.5,4.4-12.9,8.9-19.7,12.7s-14.2,7.5-21.4,11-17.2,8.2-25.6,12.5l-9.2,3.8c-5.6,2-11.1,4.4-16.6,6.7-4.6-.9-9.1-1.8-13.7-2.4-8.9-1.2-17.6-3.4-26.5-4.5h0a166.1,166.1,0,0,0-26.4-.4c-6.4.3-66.1-9.3-79.1-10.1-8-.5-9.8,0-8.2,1.2a1.1,1.1,0,0,0-.8.8,1,1,0,0,0,.7,1,77.6,77.6,0,0,1,13.9,5.2,29.5,29.5,0,0,1,6.1,5.1c-16-3.9-31.9-8-47.7-12.7h0a83.1,83.1,0,0,0-26.5-5.6,35.6,35.6,0,0,0-22.5,9.4c-.6.5,0,1.7.7,1.2h0a36.8,36.8,0,0,1,11.5-4.5,48.9,48.9,0,0,1,12.1-.4,107.1,107.1,0,0,1,24.3,6.2c17.1,5.5,34.3,10.4,51.7,14.5h0a202.3,202.3,0,0,0,51.9,7.1,184.4,184.4,0,0,1,26.8.2c8.9,1,17.6,3.2,26.5,4.2s19.1,3.2,28.7,4.4h0a55.7,55.7,0,0,0,27.1-3.5c1.9-.7.6-3.5-1.4-2.9a57.8,57.8,0,0,1-26.8,0c-3.4-.5-6.7-1.2-10-1.8l2.5-1h0a163.6,163.6,0,0,0,23.7-9.7c7.1-3.9,14.3-7.6,21.6-11.2h0a77.2,77.2,0,0,0,9.4-5.1,242,242,0,0,0,42.7-22.6c13-9,27-16.3,39.8-25.6a409.5,409.5,0,0,0,37.3-33.7,100.2,100.2,0,0,0,30.9-38,1.8,1.8,0,0,0-3.1-1.9ZM265.8,180c-8.9-1.2-17.6-3.4-26.4-4.5A155.2,155.2,0,0,0,213,175a183.7,183.7,0,0,1-47.9-5.7h0a18.3,18.3,0,0,0-5.5-6.2,36.6,36.6,0,0,1,8.7.8,201.7,201.7,0,0,0,51.9,7.1,184.5,184.5,0,0,1,26.8.2c8.8,1,17.5,3.2,26.4,4.2l5.1.7-7.8,4.6Z"/><path d="M510.1,33.6a57.1,57.1,0,0,1-3.6,15.2c-1.5,4.7-3.3,9.1-5.2,13.6h0a46.1,46.1,0,0,0-3.6,17.2c-.2,6.2-.2,12.5-1,18.7-.4,3.4-1.2,9.4-4.1,11.7h0a2.1,2.1,0,0,0-.6,2.1,2,2,0,0,0,1.7,1.5c12.8,1.2,10.8-22.7,10.8-30.2,0-3,0-5.9.2-8.9a44.7,44.7,0,0,1,2-9.5c1.3-5,2.7-9.9,3.9-14.9A89,89,0,0,0,512,33.8c0-1.2-1.8-1.4-1.9-.2Z"/><path d="M52.6,123.4a2.7,2.7,0,0,0-2.5-1.5,2.5,2.5,0,0,0-2.3,1.6,24.8,24.8,0,0,0,1.5,13.2,63.5,63.5,0,0,1,.2,15.1c0,1.2,1.9,1.8,2.3.5h0a41.7,41.7,0,0,0,.8-28.9Z"/><path d="M105.2,99.9a27.3,27.3,0,0,1-15.3,3.9,69.2,69.2,0,0,1-18.7-2c-1.5-.4-2.4,1.9-.8,2.3,3.4.9,6.6,2.2,10.1,2.9h0a57.4,57.4,0,0,0,10.9,1,20,20,0,0,0,16.8-5.3c1.6-1.9-1.2-4.1-3-2.8Z"/><path d="M129.1,152.9a39.2,39.2,0,0,0-12.7-5.2,40.4,40.4,0,0,1-13.5-6.2,49.6,49.6,0,0,1-10.3-12.9,106.3,106.3,0,0,1-7.2-14.8.9.9,0,0,0-1.2-.5.9.9,0,0,0-.7,1,58,58,0,0,0,5.7,16.4,47.5,47.5,0,0,0,9.6,14.2,33.7,33.7,0,0,0,13.4,7.3,105.9,105.9,0,0,0,15.7,3.9,1.8,1.8,0,0,0,1.8-1.2,1.8,1.8,0,0,0-.6-2Z"/><path d="M75.8,41.3A35,35,0,0,0,48.3,30.7,45.8,45.8,0,0,0,18.9,42.1,42.9,42.9,0,0,0,3.2,68.9a55.9,55.9,0,0,0,7.3,36A48.8,48.8,0,0,0,20.7,116,18.7,18.7,0,0,1,10,109.7a18,18,0,0,1-5-6.9,30.1,30.1,0,0,1-.9-8.4,1.1,1.1,0,0,0-1-1.1,1,1,0,0,0-1.3.6,17.5,17.5,0,0,0,4.6,21.2,18,18,0,0,0,21.5,6.2l.7-.6h0a18.8,18.8,0,0,0,14,.6,1.4,1.4,0,0,0,.9-1.5,1.4,1.4,0,0,0-1.4-1.2c-9.3.5-19.1-8.9-24-15.9a47.5,47.5,0,0,1-7.2-30.5A40.4,40.4,0,0,1,22.4,49.9,39.8,39.8,0,0,1,44.9,38.6a36.9,36.9,0,0,1,28.6,4.7c1.3,1,3.3-.5,2.3-2Z"/><path d="M63.4,96.3c-2.7-1-5.6-1-8.4-2.1a10.9,10.9,0,0,1-6.7-5.9c-.9-2.1-1.7-4.4.6-5.7h0a19.2,19.2,0,0,1,7.4-1.5,1.3,1.3,0,0,0,.2-2.4,17.2,17.2,0,0,0-10.3-.2,7.3,7.3,0,0,0-3.8,9,15.6,15.6,0,0,0,8.1,10.6l2.4,1a2.9,2.9,0,0,0-.1,2.7,14.1,14.1,0,0,1-6,14.8,1.1,1.1,0,0,0-.5,1.3,1,1,0,0,0,1.2.8c7.9-.6,13.4-11.7,11.6-18.9h0a13.6,13.6,0,0,0,4.4-1.1,1.6,1.6,0,0,0,.8-1.3,1.4,1.4,0,0,0-.9-1.2Z"/><path d="M68.4,49.5A79.1,79.1,0,0,1,52.8,73.7c-1.9,2.1,1.3,4.3,3.2,3.1A26,26,0,0,0,66.5,65.3a125.7,125.7,0,0,0,4.7-14.7,1.5,1.5,0,0,0-2.8-1.1Z"/><path d="M94.8,53.3c-.2-.7-1.4-1.2-1.8-.4a16.6,16.6,0,0,1-5.5,6.8,17.3,17.3,0,0,0-6.2,5.8,1.7,1.7,0,0,0,.5,2,1.8,1.8,0,0,0,2,.4,35.8,35.8,0,0,0,7.5-6.5,9.7,9.7,0,0,0,3.5-8.1Z"/><path d="M103.4,81.4c-2.4,2.2-5,4.1-7.4,6.4a2,2,0,0,0-.3,2.4,2,2,0,0,0,2.3.7,13.5,13.5,0,0,0,8.3-7.4c.5-1.6-1.4-3.5-2.9-2.1Z"/><path d="M105.5,66.5a58.7,58.7,0,0,0-10.9-3,.9.9,0,0,0-1,1.3c1.8,2.5,5,2.8,7.8,3.7h0a8.6,8.6,0,0,1,3.5,1.6c.8,1.1-.3,2.4-.8,3.4a1.6,1.6,0,0,0,.6,1.7,1.5,1.5,0,0,0,1.8,0,5.2,5.2,0,0,0,1.9-4.6,5.2,5.2,0,0,0-2.9-4.1Z"/><path d="M81.1,55.5a12.6,12.6,0,0,0-6.5,8.1c-.3,1.7,2.4,2.3,3,.7h0A23.7,23.7,0,0,1,82.4,57a1,1,0,0,0-1.3-1.5Z"/></g></svg>