<svg xmlns="http://www.w3.org/2000/svg" viewBox="0 0 512 368"><g fill="var(--main, #000)"><path d="M32.6,259.6A257.1,257.1,0,0,0,8.4,297a62.2,62.2,0,0,0-5.8,18A58.2,58.2,0,0,0,0,331a.7.7,0,0,0,1.3.1c1.3-4.3,3.8-8,5.2-12.3a132,132,0,0,1,7.4-21.4c6.5-12.5,13.4-24.7,19.9-37.2.4-.7-.7-1.2-1.2-.6Z"/><path d="M255.1,31a138.3,138.3,0,0,0-39.6-.4,86.6,86.6,0,0,0-34.9,18.5,343.8,343.8,0,0,0-48.5,68.7c-8.7,12.1-15.8,25.3-25.4,36.6S88.2,173,79.4,182.6a195.8,195.8,0,0,0-24.2,34.9c-3.2,5.3-4.5,11-7.3,16.4s-6.2,7.8-7.3,13l.5.2c1.5-5.4,6.6-8.8,9.2-13.7A182.3,182.3,0,0,1,62,214.7a274.6,274.6,0,0,1,21.3-29.1c8.2-8.9,17.5-16.8,25.5-25.8h0a316.1,316.1,0,0,0,23.9-33.7c6.8-9.9,13.8-19.3,19.8-29.6a159,159,0,0,1,26.7-38.7,89,89,0,0,1,34.9-21.2A169.8,169.8,0,0,1,255,35a2,2,0,0,0,1.8-2,2.1,2.1,0,0,0-1.7-2Z"/><path d="M405.3,159.9c-9.6-13.7-18.5-27.8-28.2-41.6-11.3-16.1-23.8-31.4-35.3-47.4A85.9,85.9,0,0,0,312,38.8a65.2,65.2,0,0,0-39.6-5.7.5.5,0,0,0-.5.5.6.6,0,0,0,.5.6,111.7,111.7,0,0,1,42.2,12.7,153,153,0,0,1,30.3,38.5c10.4,14,21.4,27.7,31.1,42.2a141.1,141.1,0,0,0,27.5,34.1,1.3,1.3,0,0,0,1.6-.1,1.4,1.4,0,0,0,.2-1.7Z"/><path d="M495.9,272.5a217.6,217.6,0,0,1-24.2-36.7,176.4,176.4,0,0,0-27.2-34.2c-11-11.3-21.5-22.6-33-33.4l-.3.3c9.8,10.7,16.9,23.6,26.8,34.3h0a212.3,212.3,0,0,1,27.3,33.9,216.7,216.7,0,0,0,20.8,33.7c4.1,4.7,8.5,9.1,12.8,13.7a52.8,52.8,0,0,1,9.3,16.9c.1.4.5.5.9.4s.6-.4.6-.7a45.1,45.1,0,0,0-13.8-28.2Z"/><path d="M44.7,326.5a.8.8,0,0,0-1,.3.9.9,0,0,0-.1,1.1c.8,1,2.1,2.4,1.9,3.8h0a4,4,0,0,1-2.1,2.5,8.3,8.3,0,0,1-9.5-.6l-.4.2-.4-.3c-4.9.4-8.1,3.1-12.9.1a2.2,2.2,0,0,0-2.2,0c-2.6,2.2-5.2,0-7.1-1.8l-.5.2c-1.2,5,4.9,6.8,8.7,5.1h0a11.1,11.1,0,0,0,14.3-3v-.2h0a10.7,10.7,0,0,0,12,2,4.9,4.9,0,0,0,3-5,5,5,0,0,0-3.8-4.5Z"/><path d="M110.2,213.3a94.6,94.6,0,0,0-20.6,23.1c-8.1,9.9-16.4,19.9-25.1,29.3-13.3,14.4-29.6,27.7-29.1,49h.9a112.1,112.1,0,0,1,35.3-51.9c7.1-7.9,15.3-14.8,22.2-22.9s11.7-16.8,17.8-25.1h0a.9.9,0,0,0-.1-1.3.9.9,0,0,0-1.3-.2Z"/><path d="M195.1,195.7a143.3,143.3,0,0,1-12.5-27.3l.3-2.3c1.6-12.5,5.1-24.4,7.3-36.8a334.2,334.2,0,0,1,4.6-36,33,33,0,0,0,2.4-19.6l-.7.2c1.5,8.5-5.6,18.4-7.6,26.7-2.8,11.3-3.9,22.9-6.7,34.1-1.4,5.6-2.6,11-3.6,16.4-2.6,2.4-5,4.9-7.5,7.5h0a85,85,0,0,1-16.6-8.1,48.2,48.2,0,0,1-15.3-13.8l-.8.3A36.3,36.3,0,0,0,150,153.2a59.7,59.7,0,0,0,16.9,9.8,215.7,215.7,0,0,1-18.1,17.7,200.1,200.1,0,0,0-31.9,28.4l.3.2h0a151.4,151.4,0,0,1,21-13.2c6.4-4.6,12.7-9.5,18.7-14.6h0a122.7,122.7,0,0,0,20.2-21.2,168,168,0,0,0-1.6,28.3c-2.1,4.4-7.8,6.5-11.3,9.3s-7.9,6.6-11.7,9.9a22.8,22.8,0,0,0-9.9,17.1h.5c.3-6.1,7.7-10.3,12.2-13.3s8.1-6.2,12.2-9.3c2.5-1.9,5.9-3.5,8.4-5.6l.6,6.1h0c.1.5.4.8.8.8a.9.9,0,0,0,.9-.8c1-7.4,2-14.7,2.9-22.1.8,1.9,1.7,3.8,2.7,5.8h0a182.7,182.7,0,0,1,15.2,46,1,1,0,0,0,1,.9,1.1,1.1,0,0,0,1-.9,69.3,69.3,0,0,0-5.9-36.7Z"/><path d="M458.4,266.3A424.1,424.1,0,0,1,417,229.6l-.6.5a134.6,134.6,0,0,0,28,31.3c5.5,4.9,10.8,10,16.2,15h0a43.3,43.3,0,0,1,13.4,16,1.3,1.3,0,0,0,2.4,0c3.5-11.3-11-19.5-18-26.1Z"/><path d="M479,306.7h-.5c-1,1.9-1.3,4.2-2.3,6.1s-2.8,2.6-4,4h0a12,12,0,0,0-3.5,9.7,1.8,1.8,0,0,0,2,1.4,1.7,1.7,0,0,0,1.5-1.9c0-4.7,3.2-6.3,5.5-9.8h0a2.4,2.4,0,0,0,.6-2,16.9,16.9,0,0,1,.7-7.4Z"/><path d="M506.5,322.2c-8.4,9-22.8,1-32,7.9v.4c6.7.3,13.4,1.9,20.1,1.5h0a13,13,0,0,0,13.1-9.1c.3-.8-.7-1.3-1.3-.7Z"/><path d="M511,305.4h-1.9a7.5,7.5,0,0,0-.8,5.3,12.7,12.7,0,0,0,.2,3.4l1,3.4a.7.7,0,0,0,.6.4c.2,0,.5-.2.5-.4l1.1-3.3a20.6,20.6,0,0,0,.2-3.5A7.9,7.9,0,0,0,511,305.4Z"/><path d="M163.3,287c-3.5-8.6-8.5-16.6-12.5-24.9a232.4,232.4,0,0,1-9.1-29.4h-.4c1.7,7.2,1,14.8,2.7,22.1h0a100.4,100.4,0,0,0,6.7,18.3c2.7,6.2,6.2,12.1,8.4,18.6h0a56,56,0,0,1,2.9,13.5,28.5,28.5,0,0,1-10.4,13.5,50.9,50.9,0,0,1-18.6,7.8v.4a55.4,55.4,0,0,0,23.4-5.8,18.4,18.4,0,0,0,10-12.7,41.8,41.8,0,0,0-3.1-21.5Z"/><path d="M226.3,244.6c-5.2-8.4-20.4-5.4-28.5-4.4-12.8,1.4-32.9,4.6-43.3-4.8h-.1A35.6,35.6,0,0,0,172,245.9a69.5,69.5,0,0,0,1.5,25.3,231.1,231.1,0,0,0,13.3,33.1l.5-.2h0a305.4,305.4,0,0,1-9.1-31,71.1,71.1,0,0,1-1.3-26.4,52.5,52.5,0,0,0,5.6.3,134.6,134.6,0,0,1,42.5-.7,1.2,1.2,0,0,0,1.3-.4,1.1,1.1,0,0,0,0-1.3Z"/><path d="M407.9,212.2a38.7,38.7,0,0,0-17.4-18.1c-11-6.3-22.4-11.3-33-18.4h0a233.8,233.8,0,0,1-26.8-22l-2.9-2.7h-.1a86.5,86.5,0,0,0,19.4-9.9A115.9,115.9,0,0,0,364,123c.6-.7-.4-1.7-1.2-1.2h0a167.5,167.5,0,0,1-40,24.6,66.7,66.7,0,0,1-9.2-10.6,207.5,207.5,0,0,0-1.4-33.4c-1.9-12.4-6.8-24.4-8.1-37h-.5c1.5,25.5,3.5,50.7,3.4,76.3,0,6.9,0,13.9.5,20.8h0a158.5,158.5,0,0,0-7.2,39.9,131.3,131.3,0,0,1-.9,19.8,150.3,150.3,0,0,0-3.2,16.5h-.6a27.1,27.1,0,0,0-18.1,4.5c-.8-8.1-10.2-14-17.6-15.7h0a38.6,38.6,0,0,0-31.8,9.8.8.8,0,0,0-.3,1,.9.9,0,0,0,1,.4,43.8,43.8,0,0,1,25.9-6.5,27.4,27.4,0,0,1,19,13.7l.6.5-1.4,2,.5.5c13.2-10.9,32.5-1.8,48.5-3.8a90,90,0,0,0,3.8,26.8,144.3,144.3,0,0,1,3.9,27.8,18.3,18.3,0,0,1-6.6,11.6,40.3,40.3,0,0,1-6.7,3c-3,1.3-5.7,3.1-8.7,4.3l.3.9c3.9-.5,7.7-1.8,11.6-2.5a15.3,15.3,0,0,0,8.1-3.8,15.8,15.8,0,0,0,4.8-11.2,70.2,70.2,0,0,0-1.1-24.2c-.9-8.2-3.4-16-4.3-24.2h0a37.1,37.1,0,0,0-1.2-9.3,23.2,23.2,0,0,0,12.3-7.7,1.5,1.5,0,0,0,0-1.8,1.3,1.3,0,0,0-1.6-.4,76.3,76.3,0,0,1-19.8,5.8,70.3,70.3,0,0,1-15.2-1,216.3,216.3,0,0,0,4.4-34.9c.2-11.5,1-22.9,2.3-34.3l1,6h0a250.9,250.9,0,0,0,10.3,32.9,1.6,1.6,0,0,0,3-.3,51.5,51.5,0,0,0-.2-5.6l2.6,2.8h0a52.2,52.2,0,0,0,9.5,7.5,40.1,40.1,0,0,1,9.5,6.8c2,2.1,3.6,4.4,5.7,6.3s2.3-.1,2-1.1c-2.6-10.5-10-13.4-17.9-19.3h-.1a132.2,132.2,0,0,1-12.4-10c-1.5-7-4-13.7-5.4-20.8h0a176.5,176.5,0,0,1-2.2-33.3,108.3,108.3,0,0,0,26.3,28.5,183.7,183.7,0,0,0,31.5,21,98.2,98.2,0,0,1,34.2,21.9,1.3,1.3,0,0,0,1.7.3,1.3,1.3,0,0,0,.6-1.6Z"/><path d="M350.6,230.5h-.4a230.2,230.2,0,0,1-.5,41.5,128.1,128.1,0,0,0-1.1,35,1.4,1.4,0,0,0,1.3,1.2,1.4,1.4,0,0,0,1.4-1.2,211.9,211.9,0,0,0,2.5-39.8,167.6,167.6,0,0,0-3.2-36.7Z"/><path d="M297.5,64a25,25,0,0,0-17-10.2,119.4,119.4,0,0,0-32-4.4,91.8,91.8,0,0,0-55,13.5l.5.5h0a94.2,94.2,0,0,1,50.5-8.1,121.5,121.5,0,0,1,23.3,1.9A49.1,49.1,0,0,1,293,66.5c1.8,1.8,6,.3,4.5-2.5Z"/><path d="M291.4,297.9a30.9,30.9,0,0,1-4.4,10,48.7,48.7,0,0,0,.1-16.6,1,1,0,0,0-1-.8.9.9,0,0,0-.9.8c-2.2,12.5-2.6,26.3-16.8,31.1h0a48.6,48.6,0,0,1-33.4-1.5,27.3,27.3,0,0,1-13.1-12,27.6,27.6,0,0,1-2.9-17.6c.2-12.3.9-37.3,13.7-44.6.7-.4,0-1.4-.7-1.1-17.2,6.4-18.3,29.9-18.6,45.3h0a72,72,0,0,0,.8,12.3l-2.1-2.9c-.5-.8-1.7.1-1.2.9,1.8,2.8,3,6.3,5.1,9a28.7,28.7,0,0,0,14.6,16.2,53,53,0,0,0,41.5,1.9,23.8,23.8,0,0,0,13.3-14.5h.3a16.9,16.9,0,0,0,7.2-15.6.6.6,0,0,0-.6-.8.8.8,0,0,0-.9.6Z"/><path d="M285.1,266.6c-1.9-3.9-6.5-8.1-5.5-12.8.2-.8-1.1-1.1-1.4-.3a14.1,14.1,0,0,0,1.3,10.6c1.9,5,1.9,10,3.4,15.1.6,2.4,3.7,1.3,4.1-.5h0a18.2,18.2,0,0,0-1.9-12.1Z"/><path d="M228,269.8a12.6,12.6,0,0,1-1.6-9.8.6.6,0,0,0-1.1-.3c-1.2,3.6-3,9.2-.9,12.7s5.4-.4,3.6-2.6Z"/><path d="M236.1,264.3a4.3,4.3,0,0,0-1.4-2.3h0l-.2-.4a3.6,3.6,0,0,1-.6-2.5c.2-1.3-1.6-1.6-2.1-.5h0a11.4,11.4,0,0,0-1.9,4c-.3,2.3,1.1,5.2,3.9,4.8a2.7,2.7,0,0,0,2.3-3Z"/><path d="M244.6,258.6l-.3-1.2-1.3-1.3v-.9c.3-1.2-1.7-1.7-2.1-.6l-.8,1.3-.6,1.2-.2.3h0a2.8,2.8,0,0,0,.8,3.1,3.1,3.1,0,0,0,2.4.7A2.4,2.4,0,0,0,244.6,258.6Z"/><path d="M254.7,253.9l-1-1.5a1.4,1.4,0,0,0-1.1-.9,1.6,1.6,0,0,0-1.4.5,5,5,0,0,0-1.2,3.8,2.6,2.6,0,0,0,1.3,2,2.6,2.6,0,0,0,2.3.2,2.9,2.9,0,0,0,1.6-1.8,2.8,2.8,0,0,0-.5-2.3Z"/><path d="M266.1,258.2l-.8-4h0a7.1,7.1,0,0,0-1.3-3.1h0a1.2,1.2,0,0,0-1-.7,1.1,1.1,0,0,0-1.1.5,6.3,6.3,0,0,0-1.8,3.4,9,9,0,0,0,.1,5.4,3.2,3.2,0,0,0,3.6,1.8,3,3,0,0,0,2.3-3.3Z"/><path d="M273.1,258.3a11.4,11.4,0,0,0-2.8-4.7,1.2,1.2,0,0,0-1.3-.1,1,1,0,0,0-.8,1,16.3,16.3,0,0,0,0,5.4c.1,1.9.3,4.4,2.5,5a2.5,2.5,0,0,0,2.7-.8c1.6-1.6.5-4-.3-5.8Z"/><path d="M253.2,270.5a13.3,13.3,0,0,1-1.7-4.3c-.2-.9-1.4-.7-1.8,0a8.5,8.5,0,0,0-.3,5.9,2.2,2.2,0,0,0,1.8,1.8h.2a1.8,1.8,0,0,0,1.9-1.1v-.2h0a2.2,2.2,0,0,0-.2-2.1Z"/><path d="M260.1,267.1a1.1,1.1,0,0,0-2.2,0c-.4,1.8-1.6,4.1.1,5.6h2c1.7-1.5.5-3.8.1-5.6Z"/><path d="M265.8,268.9c-.2-.9-1.7-1.1-1.8,0l-.5,3.1a1.1,1.1,0,0,0,2,.8A4.5,4.5,0,0,0,265.8,268.9Z"/><path d="M214.7,328.4l-1.5-.4c.2-3.4-3.3-6.1-6-7.6a100.5,100.5,0,0,1-16.3-8.4l-.6.5c1.8,1.8,2.8,4.1,4.5,5.9h0a22.9,22.9,0,0,0,5.9,4.3c1.8.8,3.5,1.7,5.3,2.7l1.5,1.3a50.4,50.4,0,0,0-25-.7,193.5,193.5,0,0,1-39,11.2v.9a65.9,65.9,0,0,0,32.9-4.3,31.6,31.6,0,0,1,22.1-3.8,37.1,37.1,0,0,0,16.2,1.9,1.8,1.8,0,0,0,1.5-1.8,1.7,1.7,0,0,0-1.5-1.7Z"/><path d="M168.6,322.6c-12.8-.7-24.3,7.2-36.9,7.6-1,0-1,1.6,0,1.7h0a46.3,46.3,0,0,0,18.9-.6c6.1-1.5,12.4-3.2,18.4-5.3h0a1.7,1.7,0,0,0,1-1.8,1.9,1.9,0,0,0-1.4-1.6Z"/><path d="M384.6,327.4a99.2,99.2,0,0,1-23.6-3.7,171.2,171.2,0,0,0-18.1-6.7l-.4.8a105.8,105.8,0,0,0,19.1,11.6c-12.2.4-20.5-7.2-32.2-8.9a86.9,86.9,0,0,0-31.5,5.3c-.8.2-.5,1.3.1,1.4,13.5,3.1,25.9-4.1,39.1.3a40.7,40.7,0,0,0,27.1,4.6,1.6,1.6,0,0,0,.8-.6,1.4,1.4,0,0,0,.1-1.1,45.8,45.8,0,0,0,19.5-.6,1.2,1.2,0,0,0,0-2.4Z"/><path d="M379.5,323.5c-4.4-4.4-11.1-4.7-16.5-7.1s-8.4-6.2-13-6.1v.4c2.2,1.3,3.3,3.7,5.1,5.4a26.1,26.1,0,0,0,7.1,4.8,59.9,59.9,0,0,0,16.7,4,.8.8,0,0,0,.6-1.4Z"/></g></svg>