<svg xmlns="http://www.w3.org/2000/svg" viewBox="0 0 512 368"><g fill="var(--main, #000)"><path d="M264.2,79.4a34.8,34.8,0,0,1-22.6,5.9c-8.8-.3-17.5-1.5-26.2-2.5-10.8-1.4-21.7-2.4-32.6-3l-16.3-.6h0a88.8,88.8,0,0,0-16.3.3c-9.1,1.4-19.2,6-20.6,16.2a1,1,0,0,0,2,.5,15.3,15.3,0,0,1,7.7-8.7,27,27,0,0,1,13.4-2c10.6.7,21.2,1.9,31.7,3.1s21.5,2.4,32.2,3.8a92.1,92.1,0,0,0,25.7,1.1,39,39,0,0,0,24.3-11.6c1.3-1.5-.8-3.6-2.4-2.5Z"/><path d="M406.8,122.9a44.7,44.7,0,0,0-11-13.1,84.5,84.5,0,0,0-27.9-17.4c-11.9-4.5-24.6-5.4-36.6-9.3-6.2-2-12.1-4.5-18.4-6.2a53,53,0,0,0-17.3-2,61.5,61.5,0,0,0-18.5,3.7,57.6,57.6,0,0,0-15.8,9.9.9.9,0,1,0,1.1,1.5,49.1,49.1,0,0,1,14.2-5.9,53.6,53.6,0,0,1,14.9-2.6,83.8,83.8,0,0,1,30.7,7.8,146.4,146.4,0,0,0,17.1,5.2c5.8,1.3,11.7,2.3,17.4,3.8A76,76,0,0,1,383.1,111,72.7,72.7,0,0,1,395,121.9c1.7,2,3.2,4.1,5,6.1s2.4,3,1.2,4.7.4,4.1,2.4,3.1a10.1,10.1,0,0,0,3.2-12.9Z"/><path d="M385.7,127.8a22.3,22.3,0,0,0-5.9-1.6l-5.1-1.5a80.8,80.8,0,0,1-10.4-4.7c-6.9-3.6-13.6-7.8-20.4-11.7h0a95.2,95.2,0,0,0-20.5-9.4A73.8,73.8,0,0,0,312,96.8a50.4,50.4,0,0,0-15,1,145.8,145.8,0,0,1-15.9,2.5l-7.3.5a15.7,15.7,0,0,1-8-1.2c-1.2-.8-2.6,1-1.4,1.7s3.4,2.6,5.3,3.7h0a19.3,19.3,0,0,0,6.7,2.5,32.4,32.4,0,0,0,7.6.5c-2.7,1.5-5.4,3-8.2,4.3l-2,.9h-.3a25,25,0,0,1-14.8-1.3,81.3,81.3,0,0,0-13.7-3.6,116.7,116.7,0,0,0-27.7-.4,361.8,361.8,0,0,1-55,4.2,96.9,96.9,0,0,1-15.1-2.4,57.3,57.3,0,0,0-15.3-3.3.7.7,0,0,0-.7.6,1,1,0,0,0,.2.9,74.3,74.3,0,0,0,26.7,10.2,125.8,125.8,0,0,0,28.1.7,296.9,296.9,0,0,1,56.5-3.5,88.4,88.4,0,0,0,28.1,1.6h.1l4.9-.9h0a72.6,72.6,0,0,0,10-3.2c3.2-1.3,6.3-2.8,9.5-4.2l4.8-2,2.2-.9,1.1-.6,2.8-.4a34.7,34.7,0,0,1,6.4-.6,36.8,36.8,0,0,1,5.8.8,156.2,156.2,0,0,1,41.3,21,87.5,87.5,0,0,0,12.1,5.4,24.4,24.4,0,0,0,13.8,2.2c3-.7,2.2-4.7.1-5.8Z"/><path d="M181.6,183a15.5,15.5,0,0,1-7.7.1,18.3,18.3,0,0,1-6.8-2.3,15.3,15.3,0,0,1-7.4-9.8,26,26,0,0,1,2.9-15.7c2.3-5.1,5.6-9.6,8.2-14.5a42.8,42.8,0,0,0,3.9-8.4,53.8,53.8,0,0,0,1.7-8.9,1.1,1.1,0,0,0-1-1.3,1,1,0,0,0-1.2,1,28.4,28.4,0,0,1-3.9,8.7c-1.7,2.5-3.5,4.9-5.3,7.3a103.5,103.5,0,0,0-11.2,15.9,26.8,26.8,0,0,0-2.2,20,22.3,22.3,0,0,0,11.5,13.5,18.5,18.5,0,0,0,10.6,1.7,21.4,21.4,0,0,0,9.6-4.3c1.6-1.1.1-3.6-1.7-3Z"/><path d="M292.1,126.5a89.2,89.2,0,0,0-34.5,19,60.9,60.9,0,0,0-13.4,16.1,89.8,89.8,0,0,1-5.8,10,41.9,41.9,0,0,1-6.5,6.8,32.5,32.5,0,0,1-10.2,5.5,17.4,17.4,0,0,1-12.3-.3c-1.3-.6-2.2,1.5-.9,2.1h0a34.5,34.5,0,0,0,10.3,3.8,26,26,0,0,0,11.4-1.1,32.2,32.2,0,0,0,16.9-13.7c4.2-6.4,6.9-13.6,10.9-20a58.1,58.1,0,0,1,13.5-15.3,54.2,54.2,0,0,1,21.2-10.2,1.7,1.7,0,0,0,1-.6,1.5,1.5,0,0,0,.2-1.1,1.6,1.6,0,0,0-.7-.9,1.4,1.4,0,0,0-1.1-.1Z"/><path d="M360.4,131.6c-3,.3-6.1,0-9.1.2l-9.2.8c-6.1.4-12.2.8-18.4,1a120.2,120.2,0,0,0-33.2,5.5,52.8,52.8,0,0,0-8.4,3.8c-2.7,1.5-5.1,3.5-7.7,5.2-1.1.8.2,2.5,1.4,1.8h0a35,35,0,0,1,7.6-2.9,70.3,70.3,0,0,1,7.9-2h0a103.9,103.9,0,0,1,15.7-2.1c11.6-.7,23.2-.2,34.7-1.3h0a84.8,84.8,0,0,0,10.1-1.5,48.5,48.5,0,0,0,9.8-3.8,2.6,2.6,0,0,0,1.4-2.9,2.5,2.5,0,0,0-2.6-1.8Z"/><path d="M231.3,318.7a24.1,24.1,0,0,0-4.2-4.8l-4.9-4.4h0A94.3,94.3,0,0,1,214,301a105.3,105.3,0,0,1-13.4-19.7,118.2,118.2,0,0,1-9.2-23.5c-2.4-9.5-4.1-19.2-6.6-28.7h0c-1.5-5.2-3.2-10.4-5.2-15.6-1-2.6-2.2-5.2-3.4-7.9s-2.7-5-3.8-7.7h0a1,1,0,0,0-1.4-.6,1.1,1.1,0,0,0-.6,1.4c.9,2.4,1.4,4.9,2.1,7.3l2.3,7.6c1.4,4.8,2.8,9.6,4,14.5,2.3,9.9,3.1,20.1,5.2,30.1a111.6,111.6,0,0,0,21.4,46.3,115.7,115.7,0,0,0,9.9,11c1.7,1.7,3.4,3.4,5.2,4.9h0a21.2,21.2,0,0,0,6.6,3.6,3.7,3.7,0,0,0,4.1-1.1,3.6,3.6,0,0,0,.1-4.2Z"/><path d="M271.5,239.2a11.4,11.4,0,0,1-6.7-2.2,25.5,25.5,0,0,1-4.8-5.6,9.2,9.2,0,0,1-1.8-3,31,31,0,0,1-1.3-4,52,52,0,0,1-.9-9.6c0-6.2.6-12.4.8-18.6h0A123.9,123.9,0,0,1,259,178a63.7,63.7,0,0,1,2.6-9.5c.6-1.6,1.3-3,1.8-4.5h0a32.1,32.1,0,0,1,2.2-5.4,1.2,1.2,0,0,0-.2-1.5,1.1,1.1,0,0,0-1.5.2c-1.1,1.2-2.4,2.2-3.4,3.5a27.7,27.7,0,0,0-3.1,4.5,62.9,62.9,0,0,0-4.3,9.1,110,110,0,0,0-5.2,20.5,65.7,65.7,0,0,0-.9,6.6,59.7,59.7,0,0,0-15.8.6,74.5,74.5,0,0,0-17.9,5.6,1.1,1.1,0,0,0-.6,1.3,1.1,1.1,0,0,0,1.1.8,177.5,177.5,0,0,1,32.6-.9c-.2,2.6-.2,5.1-.2,7.6h0a35.1,35.1,0,0,0,5.8,21.3,17.9,17.9,0,0,0,20.6,5.8,2.3,2.3,0,0,0,1.3-2.6,2.5,2.5,0,0,0-2.4-1.8Z"/><path d="M402.5,315.3a56.7,56.7,0,0,1-19.9-6.8c-6.2-3.5-12.1-7.5-18.2-11.2A199.5,199.5,0,0,0,321,276.4h-.1a23.4,23.4,0,0,0-2.3-8.5,40.9,40.9,0,0,0-13.8-17.5,48.2,48.2,0,0,0-10.5-5.6,61,61,0,0,0-11.8-2.7,1.1,1.1,0,1,0-.4,2.2,29.2,29.2,0,0,1,9.9,4.3,41.4,41.4,0,0,1,8,6.5,49.7,49.7,0,0,1,11.1,17.5l.5,1.6-4.2-.3a76.1,76.1,0,0,0-13.5,1.1,1.1,1.1,0,0,0-1,1.3,1.2,1.2,0,0,0,1.2,1,27.4,27.4,0,0,1,12,2.4c3.8,1.3,7.4,3.1,11.2,4.6,7.3,3,14.6,6.1,21.8,9.6s13.6,7,20.2,10.9a116.1,116.1,0,0,0,19.4,10.3,48.3,48.3,0,0,0,23.7,4.2,2,2,0,0,0,.1-4Z"/><path d="M398.7,302.2a28.6,28.6,0,0,1-9.9-14.9,146.1,146.1,0,0,1-5.1-22.7q-2.2-13.1-3.3-26.4c-.6-8-1.1-16-2.3-23.9h0A102.5,102.5,0,0,0,375,201a60.7,60.7,0,0,0-2.4-5.9,36.7,36.7,0,0,0-3.8-5.6,1.1,1.1,0,0,0-1.4-.3,1,1,0,0,0-.5,1.3,51.2,51.2,0,0,1,1.5,5.6,50.1,50.1,0,0,1,1.4,5.2l-2-1.1c-3.6-2-7-3.5-8-7.7a30.6,30.6,0,0,1,2.4-15.8,110.1,110.1,0,0,0,5.2-16.9,41,41,0,0,0,.9-9.9,30.4,30.4,0,0,0-.4-5.2c-.4-1.8-1-3.6-1.3-5.4s-2.3-1.2-2.1.2a44.2,44.2,0,0,1-.5,9.6,66.1,66.1,0,0,1-1.5,8.9,100.2,100.2,0,0,1-6.9,16.6c-4.4,9.8-6.9,24.1,4.7,30,2.1,1,4.3,1.7,6.3,2.8a8.6,8.6,0,0,1,2.2,1.5l1.7,1.2h.2l.4.6.3.3.3,3.2c.6,8.4.4,16.8.9,25.1h0a244.5,244.5,0,0,0,3.3,27.1,113.5,113.5,0,0,0,5.6,23.7,29.8,29.8,0,0,0,5.7,9.9,23.3,23.3,0,0,0,4.6,3.7,17.2,17.2,0,0,0,5.4,1.8,1.9,1.9,0,0,0,2-1.1,1.9,1.9,0,0,0-.5-2.3Z"/><path d="M440.2,332.6c-1.3-7.3-3-14.5-4.9-21.7-3.8-14.2-8.8-28.1-13.9-41.9s-10.4-27.7-14.5-41.9-6.8-29.2-10.3-43.8a181.6,181.6,0,0,0-16-47.4c-.8-1.2-2.6,0-2.2,1.3,2.3,7.1,4.6,14.3,6.6,21.5s3.3,14.2,4.8,21.3c2.5,13,4.9,25.9,7.9,38.8h.1a22.6,22.6,0,0,0-5.8-.3,13.2,13.2,0,0,0-8,4.3,1.3,1.3,0,0,0,1.2,2.1,26.3,26.3,0,0,1,13.9,1.4l.6.2c7.3,27.4,18.8,53.4,26.6,80.5a209.5,209.5,0,0,1,5.2,23.2c.6,3.9,1.1,7.9,1.4,11.8s.5,8.4,1.2,12.6a3.7,3.7,0,0,0,3.6,3.2,3.9,3.9,0,0,0,3.8-3.1,71.4,71.4,0,0,0-1.3-22.1Z"/><path d="M425.3,353.6a277.1,277.1,0,0,1-35.3.2,219.9,219.9,0,0,1-35.1-5.9,511.4,511.4,0,0,1-68.1-23.4l-3.9-1.5h0a24.3,24.3,0,0,0-6.3-3,27.4,27.4,0,0,0-3.9-.9,56.9,56.9,0,0,0-23.8-3.7c-1,.1-.8,1.4,0,1.7,3.2.8,6.4,1.9,9.5,3a18.6,18.6,0,0,0-4.9,2.9,101,101,0,0,1-10.3,6.7c-1.7,1,0,3.5,1.7,2.9a57.4,57.4,0,0,1,10.1-3.5c3.3-.5,6.5-1.4,9.8-1.8a28.8,28.8,0,0,1,9.7,1.3c2.2.6,4.4,1,6.6,1.4l.5.2c8.8,4.1,17.6,8.1,26.5,11.8a28.6,28.6,0,0,1,2.4,4.2l2.3,4.8c.8,1.8,1.3,4.3,3.1,5.3a2.7,2.7,0,0,0,2.3.5,3,3,0,0,0,1.8-1.5,8.8,8.8,0,0,0-1.2-6.7,19.2,19.2,0,0,0-1.8-3.1,274.1,274.1,0,0,0,68.5,17.1,195.7,195.7,0,0,0,20.3,1,93.4,93.4,0,0,0,20.4-1.9,4.2,4.2,0,0,0,3.5-4.5,4.1,4.1,0,0,0-4.4-3.6Z"/><path d="M189.7,288.4a44.5,44.5,0,0,0-13.6-1.7c-4.8-.2-9.5-.2-14.3-.2-9.3.1-18.6.8-27.8,1.8s-18.5,2.3-27.7,4h0a74.6,74.6,0,0,0-24.4,7.6,24.4,24.4,0,0,0-8.8,8.4,24.1,24.1,0,0,0-2.5,5.7,24.7,24.7,0,0,0-.4,6.1c0,1.3,1.9,1.7,2.1.3a15.9,15.9,0,0,1,5.1-8.7,29.7,29.7,0,0,1,7.8-5.9,74.7,74.7,0,0,1,22.7-5.5c17.4-2.5,34.8-4,52.3-5.2l14.6-.8a61,61,0,0,0,14.8-1.6,2.3,2.3,0,0,0,1.4-2.1,2.5,2.5,0,0,0-1.3-2.2Z"/><path d="M221.9,324.8a32.1,32.1,0,0,0-10.9-8,86.9,86.9,0,0,0-11.7-5.2,118.4,118.4,0,0,0-25.7-5.9,146.2,146.2,0,0,0-55.1,4.2c-5.1,1.3-10.1,2.9-15.1,4.6s-10.1,4.1-15.2,6.2c-1.3.6-.9,2.9.6,2.5,4.5-1,9.1-1.6,13.6-2.4l13.7-2.5c9-1.5,18-2.6,27.1-3.3h0a131.4,131.4,0,0,1,49.1,4.8,122.9,122.9,0,0,1,13.2,4.9,102.2,102.2,0,0,0,13.1,5.8c3,.8,5.1-3.4,3.3-5.7Z"/><path d="M320.5,362.9a54,54,0,0,1-12.5-3.5,49.7,49.7,0,0,0-6.5-2.2,13.1,13.1,0,0,0-6.8.2,1.5,1.5,0,0,0-1.3,1.6,1.6,1.6,0,0,0,1.6,1.4,16.5,16.5,0,0,1,6.7,2.8,42.7,42.7,0,0,0,6.8,3.3,11,11,0,0,0,12.9-1.3,1.4,1.4,0,0,0,.2-1.4,1.4,1.4,0,0,0-1.1-.9Z"/><path d="M210.3,244.5a56.4,56.4,0,0,0-2.9-10.7c-1-3.3-2.1-6.6-3.2-9.9-2.3-6.8-4.4-13.7-6.5-20.6-.5-1.7-3-.6-2.6,1,1.9,7,3.7,13.9,5.4,20.9.8,3.3,1.6,6.7,2.5,10h0a53.1,53.1,0,0,0,3.1,10.3,2.2,2.2,0,0,0,2.5,1.3,2.2,2.2,0,0,0,1.7-2.3Z"/><path d="M224.8,267.5a25.7,25.7,0,0,0-4.8-5.1,22.7,22.7,0,0,1-4.5-5.7c-.7-1.2-2.7-.5-2.1.9a55.5,55.5,0,0,0,3.2,7,12.2,12.2,0,0,0,5.1,5.9c1.7.7,4-1.2,3.1-3Z"/><path d="M261.9,250.6c-6.4,10-9.4,23.6-20.7,29.7h0a43.5,43.5,0,0,1-17.4,3.7,45.8,45.8,0,0,1-8.3-.2,17.2,17.2,0,0,1-8-2.6c-1.1-.9-2.7.6-1.8,1.7h0a19.8,19.8,0,0,0,5.1,4.9,25,25,0,0,0,7.4,3,42.2,42.2,0,0,0,16.6.9,32.9,32.9,0,0,0,26-20.6,51.3,51.3,0,0,0,4.4-19.6,1.8,1.8,0,0,0-1.3-1.6,1.9,1.9,0,0,0-2,.7Z"/><path d="M246.1,125.3a83.7,83.7,0,0,0-9.7,5.5l-9.6,6c-5.8,3.7-11.4,7.9-17.3,11.3a26.7,26.7,0,0,1-17.6,4.3,19.6,19.6,0,0,1-12.8-9.8c-1-1.7-3.6-.1-2.9,1.6a27.4,27.4,0,0,0,8.5,11.4,20.3,20.3,0,0,0,15.7,3.4,44.1,44.1,0,0,0,15.9-6.8l15.2-10.4,8.5-6.2h0a81.2,81.2,0,0,0,8.6-6.9c1.5-1.6-.7-4.2-2.5-3.4Z"/><path d="M286.5,351.9a47.7,47.7,0,0,0-10.4-3.7c-3.5-1-7-1.9-10.6-2.7a143.7,143.7,0,0,0-21.7-3.2,235.2,235.2,0,0,0-31.4.3l-1.2-1a11.3,11.3,0,0,1-2.3-2.6,13.5,13.5,0,0,1-1.8-6.2.9.9,0,0,0-.3-.9,1,1,0,0,0-.9-.4.7.7,0,0,0-.6-.3c-.2,0-.4.2-.6.3l-.9,1.2-1,1a.7.7,0,0,0,.6,1.1h0a4.8,4.8,0,0,0-.5,1.7,12.4,12.4,0,0,0,.8,5.1l.7,1.5-5.7.4c-15,.8-30.1,1.3-45.2,1.5h0a265.3,265.3,0,0,1-37.8-1.2,111.5,111.5,0,0,1-19.1-3.9A63.4,63.4,0,0,1,78.3,332c-1.1-.8-2.7.6-1.7,1.7A62.1,62.1,0,0,0,90.3,345a67.1,67.1,0,0,0,17.4,6.3,171,171,0,0,0,37.1,2.9c15.3,0,30.6-.4,46-1s30.2-2.3,45.3-2.1c8.1.1,16.3.5,24.3,1.4,4.1.4,8.1.9,12.2,1.6s8.4,1.6,12.7,2.1a2.1,2.1,0,0,0,2.4-1.6,2.3,2.3,0,0,0-1.2-2.7Z"/><path d="M268.2,31a39.7,39.7,0,0,0-56-27.1,37.1,37.1,0,0,0-12.5,13.9,52.6,52.6,0,0,0-6.2,16.7,46.3,46.3,0,0,0,.3,19.6A39.6,39.6,0,0,0,201.7,72a1.5,1.5,0,0,0,1.8.3,1.4,1.4,0,0,0,.6-1.7c-.8-2.5-1.9-4.9-2.6-7.4a48.7,48.7,0,0,1-1.5-7.6l-.3-4c.8-1.2,1.4-2.5,2.3-3.6h0a22.9,22.9,0,0,1,4.5-4.3,104.6,104.6,0,0,1,13.7-7.1c8.4-4.6,16.6-11.6,15-22.2-.3-1.4-2.5-1.6-2.6,0A17.1,17.1,0,0,1,226,26.9a57.8,57.8,0,0,1-13,6.3,42.6,42.6,0,0,0-12.8,7.6h0v-.6a44.2,44.2,0,0,1,12.8-27,26.2,26.2,0,0,1,13.3-5.1,27,27,0,0,1,14,2.3,30.5,30.5,0,0,1,18.8,19.7,40,40,0,0,1,.9,18.2v-.5a17.8,17.8,0,0,0-10.3-10.2,11.5,11.5,0,0,1-5.3-4.2,19.9,19.9,0,0,1-2.8-6.7c-.4-1.3-2.5-.7-2.3.5h0a20.8,20.8,0,0,0,3.9,12.1c3,3.3,8,4.2,10.3,8.3h0a25.9,25.9,0,0,1,2.1,6.1,46.4,46.4,0,0,1,1.6,7.4l.2,1.5-1.2,6.1h0v1.1a34.9,34.9,0,0,0-2,4.4,2.3,2.3,0,0,0,2.4,2.5,9.9,9.9,0,0,0,6.4-8.8,66.7,66.7,0,0,0,5.1-17,49.4,49.4,0,0,0,.1-19.9Z"/><path d="M249.4,51.8a25,25,0,0,1-3.8-.6,12.9,12.9,0,0,0-3.4.1H239c-1.4.1-2.5.7-3.8.9h0a1.2,1.2,0,0,0-.9.9.9.9,0,0,0,.6,1.1,18.9,18.9,0,0,0,3.6,1.6,16.4,16.4,0,0,0,3.8.2,12.1,12.1,0,0,0,3.8-.6c1.4-.5,2.3-1.5,3.7-2.1h0a.9.9,0,0,0,.4-.9.8.8,0,0,0-.8-.7Z"/><path d="M203.2,51.8a25,25,0,0,0,3.8-.6,12.9,12.9,0,0,1,3.4.1h3.2c1.4.1,2.5.7,3.8.9a1.2,1.2,0,0,1,.9.9.9.9,0,0,1-.6,1.1,18.9,18.9,0,0,1-3.6,1.6,16.4,16.4,0,0,1-3.8.2,12.1,12.1,0,0,1-3.8-.6c-1.4-.5-2.3-1.5-3.7-2.1a.9.9,0,0,1-.4-.9.8.8,0,0,1,.8-.7Z"/></g></svg>