<svg xmlns="http://www.w3.org/2000/svg" viewBox="0 0 512 368"><g fill="var(--main, #000)"><path d="M85.5,288.5c-20-20.5-34.2,8.4-50.9,17.2-6.9,3.7-39.1,5.2-34.1,18.9.2.4.5.6.8.5a.7.7,0,0,0,.7-.6c.6-10.1,27.9-8.8,34.9-11.9,15.1-6.7,25-32.2,43.9-19.5,2.9,1.9,7.5-1.8,4.7-4.6Z"/><path d="M263.7,315.1a147.5,147.5,0,0,1-54.6,2.4,550.1,550.1,0,0,0-62.9-2.1l-9.2.3c-1.4-3.6-3.6-7-4.7-10.7a87.5,87.5,0,0,1-1.9-16.9c8.9-2.6,17.7-5.8,26.9-8.3a161.4,161.4,0,0,1,36.6-5.7,58.8,58.8,0,0,1,23.1,4.2,16.6,16.6,0,0,0,8.8,1.8,5,5,0,0,0,4.4-1.2,5.4,5.4,0,0,0,1.7-4.3c-2.8-26.7-7.9-52.8-11.5-79.4-.1-.7-1.3-.7-1.3,0-.1,12.6-1.6,25.1-1.2,37.6.3,6.2.9,12.4,1.4,18.5.2,2.1,2.3,12.8,2.8,18.5h0a108.9,108.9,0,0,0-22.4-5.3,152.2,152.2,0,0,0-33.6,4.1c-24.4,5.5-45.7,19.1-70.5,23.3v.8h0a82.7,82.7,0,0,0,28-2.7,38,38,0,0,0,2.1,26.1A859.1,859.1,0,0,0,3.9,330.3v1c50.8.9,101.3-6.1,152-5.8,22.9.1,45.4,2.7,68.1,4.2a58.8,58.8,0,0,0,43.7-7.5,4.1,4.1,0,0,0-4-7.1Z"/><path d="M443.2,331.8a176.2,176.2,0,0,1-15.6-54,488.2,488.2,0,0,1-6.9-52.6c-1.1-13.9-4.3-83.9-5.6-103.3h0a.9.9,0,0,0-.7-.6.7.7,0,0,0-.7.6c-1.8,18.4-2.7,98.6-1,116.3h0a381.6,381.6,0,0,0,9.7,58,80.9,80.9,0,0,0,17.3,38.9c2.1,2.1,4.7-1.2,3.5-3.3Z"/><path d="M497.3,317.6a17.1,17.1,0,0,0-15.4-7.5,87.9,87.9,0,0,1-15.4.2,26.5,26.5,0,0,1-12-7.7,237.9,237.9,0,0,1-3.2-46.1c-.1-23.2,2-46.3,3.3-69.4,1.2-21.1,1.9-42.4,1.7-63.6A153.9,153.9,0,0,0,446.8,72l-.7.5a273.7,273.7,0,0,1,2.5,82.3c-1,25-4,49.9-5.8,74.8h0a263,263,0,0,0,2,67.5c2.4,12.9,5.1,31.9,20.6,34.3,2,.3,2.6-2.1,1.4-3.3h0a39.7,39.7,0,0,1-7.7-11.3,21.9,21.9,0,0,0,4.9,1.7c10.9,2.4,21.9-4.9,32.4.2.7.4,1.3-.6.9-1.2Z"/><path d="M510,338.4c-7.9-2.4-15.5-7.4-24-4.7a87.5,87.5,0,0,1-15.1,5.4c-7.8,1-15.7-.3-23.5.1-.7.1-.6.9-.2,1.2a44.6,44.6,0,0,0,31.8,4.5,26.3,26.3,0,0,1,20.4-.7,12,12,0,0,0,10.6.2c2.4-1,2.9-5.2,0-6Z"/><path d="M264,59.2a131.6,131.6,0,0,0-58.5,56.3,55.4,55.4,0,0,0,17.7,64.6l1-.9C189.1,132.8,227,88,264.9,60.4c.8-.6-.1-1.7-.9-1.2Z"/><path d="M441.6,53.5A96.3,96.3,0,0,0,365.9,22a165.5,165.5,0,0,0-86.5,27l.5.8a165.2,165.2,0,0,1,85.3-18.2,128.7,128.7,0,0,1,37.9,7.9c12.6,4.8,22.5,14.1,34.8,18.8a3.1,3.1,0,0,0,3.6-1,3.2,3.2,0,0,0,.1-3.8Z"/><path d="M337.5,96.3a45.7,45.7,0,0,0-30.6,9.4A81.1,81.1,0,0,0,264.1,68l-.5.8h0A117.4,117.4,0,0,1,301,111.2a64.3,64.3,0,0,0-14.9,33,142.2,142.2,0,0,0-9-27.2l-1.1.2c.2,15.5,3.7,30.9,5.1,46.3h0a462.6,462.6,0,0,1,1.4,51.3c-.7,31.2-6.6,61.8-8.4,92.8a1.2,1.2,0,0,0,.9,1.3,1.1,1.1,0,0,0,1.4-.7A226.8,226.8,0,0,0,292,214.9a426.9,426.9,0,0,0-2.6-51.8A102.9,102.9,0,0,1,300,124.8c9.1-15,24.4-18.3,37.7-27.6Z"/><path d="M410.7,112.4c2,3,6,1.1,6.7-1.8h0a25.5,25.5,0,0,0-10.6-22.5,50.9,50.9,0,0,0-23-11.1l-.3,1h0a32.7,32.7,0,0,1,19,15.4,42.9,42.9,0,0,1,2.6,5.8,32.3,32.3,0,0,0-9.2,2.6,32.4,32.4,0,0,1-24.9,3.5,89.5,89.5,0,0,1-23.1-11.1l-.7.6c8.1,8.9,13.8,17.9,26.4,20.6a39.3,39.3,0,0,0,23.8-4.3,30.3,30.3,0,0,1,5.4,23.5,72.1,72.1,0,0,0-2.4,11.2c0,10,12.6,14.7,11.7,24.5h0a1.8,1.8,0,0,0,1.3,1.8,1.6,1.6,0,0,0,1.9-.9,10.1,10.1,0,0,0,.6-10.8,62.6,62.6,0,0,0-4.5-5.7,24.4,24.4,0,0,1-2.8-17.1,26.4,26.4,0,0,0-.8-15,26.8,26.8,0,0,0-8.9-12.1,39,39,0,0,1,9.5-2.4,25.5,25.5,0,0,0,2.3,4.3Z"/><path d="M489.4,131.3a45.3,45.3,0,0,0-4.7-15.7,44,44,0,0,0-13-32.3c-5.8-5.5-17.4-11.2-22.6-2.1-.4.7.5,1.5,1.2,1.2,9.2-4,18,7.7,21.4,14.7h0a38,38,0,0,1,1.8,4.7,32.4,32.4,0,0,0-21.2-7.7c-2.6,0-2.4,3.5-.6,4.4,14.7,8,27.6,17.3,28.4,35.5h0a35.9,35.9,0,0,1-26.7,36.6c-3.5,1.1-1.4,6.4,2.1,5.4h0a44.6,44.6,0,0,0,33.9-44.7Z"/></g></svg>